# Blender 4.0.2
# www.blender.org
mtllib bear.mtl
o Cube.007
v -1.198064 0.508653 -0.424818
v -1.291407 0.738402 -0.459580
v -1.196810 0.506785 -0.262102
v -1.290152 0.736534 -0.222919
v -1.231379 0.323094 -0.424818
v -1.541423 0.472187 -0.459580
v -1.230125 0.321226 -0.262102
v -1.540169 0.470320 -0.222919
v -1.441592 0.770118 -0.428221
v -1.440338 0.768250 -0.258266
v -1.581238 0.618221 -0.258266
v -1.582493 0.620089 -0.428221
v -1.159559 0.491433 -0.262102
v -1.160813 0.493301 -0.424818
v -1.112735 0.308815 -0.262102
v -1.113989 0.310683 -0.424818
v -0.914769 0.556388 -0.221586
v -0.914769 0.556388 -0.410112
v -0.867945 0.373770 -0.221586
v -0.867945 0.373770 -0.410112
v -0.783240 0.538752 -0.221586
v -0.783240 0.538752 -0.410112
v -0.821868 0.354226 -0.221586
v -0.821868 0.354226 -0.410112
v -0.810969 0.648305 -0.221586
v -0.810969 0.648305 -0.410112
v -0.771334 0.627555 -0.221586
v -0.771334 0.627555 -0.410112
v -1.198064 0.508653 0.424818
v -1.291407 0.738402 0.459580
v -1.196810 0.506785 0.262102
v -1.290152 0.736534 0.222919
v -1.231379 0.323094 0.424818
v -1.541423 0.472187 0.459580
v -1.230125 0.321226 0.262102
v -1.540169 0.470320 0.222919
v -1.441592 0.770118 0.428221
v -1.440338 0.768250 0.258266
v -1.581238 0.618221 0.258266
v -1.582493 0.620089 0.428221
v -1.159559 0.491433 0.262102
v -1.160813 0.493301 0.424818
v -1.112735 0.308815 0.262102
v -1.113989 0.310683 0.424818
v -0.914769 0.556388 0.221586
v -0.914769 0.556388 0.410112
v -0.867945 0.373770 0.221586
v -0.867945 0.373770 0.410112
v -0.783240 0.538752 0.221586
v -0.783240 0.538752 0.410112
v -0.821868 0.354226 0.221586
v -0.821868 0.354226 0.410112
v -0.810969 0.648305 0.221586
v -0.810969 0.648305 0.410112
v -0.771334 0.627555 0.221586
v -0.771334 0.627555 0.410112
v -2.231653 0.047509 0.287455
v -2.433130 0.585959 0.287455
v -2.231653 0.047509 -0.287455
v -2.433130 0.585959 -0.287455
v -1.404462 0.218381 0.417307
v -1.696952 1.000067 0.417307
v -1.404462 0.218381 -0.417307
v -1.696952 1.000067 -0.417307
v -1.316707 1.015788 -0.298776
v -1.107296 0.456132 -0.298776
v -1.107296 0.456132 0.298776
v -1.316707 1.015788 0.298776
v -1.087773 1.146256 -0.160395
v -0.945294 0.765479 -0.160395
v -0.945294 0.765479 0.160395
v -1.087773 1.146256 0.160395
v -0.871659 1.125893 -0.141957
v -0.772162 0.859985 -0.141957
v -0.772162 0.859985 0.141957
v -0.871659 1.125893 0.141957
v -0.596131 1.134822 -0.053761
v -0.558450 1.034119 -0.053761
v -0.558450 1.034119 0.053761
v -0.596131 1.134822 0.053761
v -2.367841 0.159329 -0.132674
v -2.367841 0.159329 0.132674
v -2.460832 0.407849 0.132674
v -2.460832 0.407849 -0.132674
v -2.212160 -0.004588 0.000000
v -2.446945 0.622879 0.000000
v -1.377445 0.146179 0.000000
v -1.718289 1.057092 0.000000
v -1.087147 0.402282 0.000000
v -1.331178 1.054461 0.000000
v -0.938641 0.747699 0.000000
v -1.104675 1.191426 0.000000
v -0.767122 0.846515 0.000000
v -0.883068 1.156384 0.000000
v -0.558519 1.034305 0.000000
v -0.602430 1.151657 0.000000
v -2.357180 0.130838 0.000000
v -2.465544 0.420443 0.000000
v -2.332392 0.316734 0.340935
v -2.332392 0.316734 -0.340935
v -1.550707 0.609224 -0.494945
v -1.550707 0.609224 0.494945
v -1.212002 0.735960 -0.354362
v -1.212002 0.735960 0.354362
v -1.016534 0.955868 -0.190236
v -1.016534 0.955868 0.190236
v -0.821911 0.992939 -0.168367
v -0.821911 0.992939 0.168367
v -0.577290 1.084471 -0.063763
v -0.577290 1.084471 0.063763
v -2.414337 0.283589 0.157358
v -2.414337 0.283589 -0.157358
v -2.411362 0.275640 0.000000
v -0.580475 1.092981 0.000000
v -2.067091 0.089147 -0.323607
v -2.345796 0.266604 -0.277293
v -2.064944 0.087055 -0.540402
v -2.343649 0.264512 -0.592607
v -1.815911 0.088286 -0.323607
v -1.936916 0.530392 -0.277293
v -1.813764 0.086194 -0.540402
v -1.934769 0.528300 -0.592607
v -2.351327 0.471041 -0.319074
v -2.349180 0.468949 -0.545512
v -2.118750 0.617611 -0.545512
v -2.120897 0.619703 -0.319074
v -2.053762 0.034552 -0.540402
v -2.055909 0.036644 -0.323607
v -1.825664 -0.070630 -0.540402
v -1.827811 -0.068538 -0.323607
v -2.197624 -0.270676 -0.594383
v -2.197624 -0.270676 -0.343201
v -1.798353 -0.413000 -0.594383
v -1.798353 -0.413000 -0.343201
v -2.206069 -0.447283 -0.594383
v -2.206069 -0.447283 -0.343201
v -1.783796 -0.478075 -0.594383
v -1.783796 -0.478075 -0.343201
v -1.944051 -0.300485 -0.337605
v -1.942978 -0.301531 -0.571594
v -2.138779 -0.184237 -0.571594
v -2.139853 -0.183191 -0.337605
v -2.067091 0.089147 0.323607
v -2.345796 0.266604 0.277293
v -2.064944 0.087055 0.540402
v -2.343649 0.264512 0.592607
v -1.815911 0.088286 0.323607
v -1.936916 0.530392 0.277293
v -1.813764 0.086194 0.540402
v -1.934769 0.528300 0.592607
v -2.351327 0.471041 0.319074
v -2.349180 0.468949 0.545512
v -2.118750 0.617611 0.545512
v -2.120897 0.619703 0.319074
v -2.053762 0.034552 0.540402
v -2.055909 0.036644 0.323607
v -1.825664 -0.070631 0.540402
v -1.827811 -0.068538 0.323607
v -2.197624 -0.270676 0.594383
v -2.197624 -0.270676 0.343201
v -1.798353 -0.413000 0.594383
v -1.798353 -0.413000 0.343201
v -2.206069 -0.447283 0.594383
v -2.206069 -0.447283 0.343201
v -1.783796 -0.478075 0.594383
v -1.783796 -0.478075 0.343201
v -1.944051 -0.300485 0.337605
v -1.942978 -0.301531 0.571594
v -2.138779 -0.184237 0.571594
v -2.139853 -0.183191 0.337605
vn 0.9263 0.3768 -0.0028
vn 0.1155 -0.0207 0.9931
vn -0.4341 -0.9008 -0.0070
vn 0.1026 -0.0184 -0.9945
vn -0.0000 -0.0000 1.0000
vn 0.2051 0.9787 0.0066
vn -0.7289 0.6845 0.0129
vn -0.1695 0.1592 -0.9726
vn -0.1896 0.1781 0.9656
vn -0.9633 -0.2684 0.0042
vn 0.2565 -0.9666 -0.0000
vn 0.3810 0.9245 0.0077
vn -0.1051 -0.9944 -0.0106
vn -0.0000 -0.0000 -1.0000
vn -0.2491 0.9684 0.0130
vn 0.0560 0.0144 -0.9983
vn -0.1530 -0.0392 0.9874
vn 0.9788 -0.2049 -0.0000
vn -0.3905 -0.9206 -0.0000
vn 0.4638 0.8859 -0.0000
vn 0.9911 -0.1329 -0.0000
vn -0.6630 0.7487 -0.0000
vn 0.9266 0.3761 0.0019
vn 0.1249 -0.1173 -0.9852
vn -0.4341 -0.9008 0.0070
vn 0.1026 -0.0184 0.9945
vn 0.2051 0.9787 -0.0066
vn -0.7289 0.6845 -0.0129
vn -0.1695 0.1592 0.9726
vn -0.1896 0.1781 -0.9656
vn -0.9637 -0.2669 -0.0030
vn 0.2491 -0.9684 0.0130
vn 0.3810 0.9245 -0.0077
vn -0.1051 -0.9944 0.0106
vn -0.2491 0.9684 -0.0130
vn 0.0560 0.0144 0.9983
vn -0.1530 -0.0392 -0.9874
vn -0.9948 0.0914 -0.0440
vn -0.2303 0.1060 -0.9673
vn 0.0067 0.9917 0.1280
vn -0.2303 0.1060 0.9673
vn 0.1746 -0.9667 0.1870
vn -0.5042 0.8518 0.1422
vn 0.5793 0.0898 0.8102
vn 0.2745 0.2851 -0.9183
vn 0.3942 -0.0349 0.9183
vn 0.6511 -0.7381 -0.1769
vn 0.4967 -0.8622 -0.0994
vn 0.9156 -0.3937 -0.0816
vn -0.4962 0.8206 0.2834
vn 0.3777 0.3143 -0.8710
vn 0.0161 0.9547 0.2971
vn 0.1511 0.9555 0.2532
vn 0.0677 0.2187 -0.9734
vn 0.1309 -0.1055 0.9858
vn 0.9366 0.3505 -0.0000
vn 0.2835 0.2878 -0.9148
vn 0.4028 -0.0310 0.9148
vn 0.6691 -0.7432 0.0034
vn -0.9366 -0.3504 -0.0000
vn -0.6790 -0.7271 0.1016
vn -0.8125 -0.3901 -0.4331
vn -0.8697 -0.2397 0.4315
vn -0.6877 -0.7211 -0.0841
vn 0.6520 -0.7523 0.0945
vn 0.9366 0.3504 -0.0000
vn 0.1088 0.9737 -0.2004
vn 0.0346 0.9777 -0.2072
vn -0.4270 0.8939 -0.1364
vn 0.9013 -0.4116 0.1350
vn 0.4854 -0.8665 0.1162
vn 0.6560 -0.7354 0.1697
vn -0.5042 0.8518 -0.1422
vn 0.1746 -0.9667 -0.1870
vn 0.0012 0.9908 -0.1353
vn -0.9930 0.1016 0.0608
vn -0.8125 -0.3901 0.4331
vn -0.8697 -0.2397 -0.4315
vn 0.2835 0.2878 0.9148
vn 0.4028 -0.0310 -0.9148
vn 0.1013 0.1909 0.9764
vn 0.1742 -0.1287 -0.9763
vn 0.5831 0.0572 -0.8104
vn 0.2745 0.2851 0.9183
vn 0.3942 -0.0349 -0.9183
vn 0.3753 0.2790 0.8839
vn -0.1041 -0.2311 0.9673
vn -0.1041 -0.2311 -0.9673
vn -0.5375 -0.8433 0.0028
vn -0.0004 -0.1174 -0.9931
vn 0.9643 0.2648 0.0070
vn -0.0004 -0.1043 0.9945
vn -0.9997 -0.0255 -0.0066
vn -0.5421 0.8402 -0.0129
vn -0.1260 0.1954 0.9726
vn -0.1410 0.2186 -0.9656
vn 0.4375 0.8992 -0.0042
vn 0.6105 0.7920 -0.0000
vn -0.9780 -0.2083 -0.0077
vn 0.9971 -0.0757 0.0106
vn -0.8343 0.5513 -0.0063
vn -0.0328 -0.0919 0.9952
vn 0.1096 0.1830 -0.9770
vn -0.0727 -0.9974 -0.0000
vn 0.9759 0.2183 -0.0000
vn -0.9989 0.0478 -0.0000
vn 0.0553 0.1198 -0.9913
vn -0.0278 -0.0463 0.9985
vn -0.9339 0.3574 -0.0127
vn 0.8912 -0.4536 0.0061
vn -0.5369 -0.8437 -0.0019
vn 0.0929 -0.1440 0.9852
vn 0.9643 0.2648 -0.0070
vn -0.0004 -0.1043 -0.9945
vn -0.9997 -0.0255 0.0066
vn -0.5421 0.8402 0.0129
vn -0.1260 0.1954 -0.9726
vn -0.1410 0.2186 0.9656
vn 0.4361 0.8999 0.0030
vn 0.6112 0.7915 0.0007
vn -0.9780 -0.2083 0.0077
vn 0.9971 -0.0757 -0.0106
vn -0.8343 0.5513 0.0063
vn -0.0274 -0.0458 -0.9986
vn 0.1096 0.1830 0.9770
vn 0.0553 0.1198 0.9913
vn -0.0249 -0.0540 -0.9982
vn -0.9339 0.3574 0.0127
vn 0.8936 -0.4486 -0.0132
vn 0.9266 0.3761 -0.0019
vn 0.1249 -0.1173 0.9852
vn -0.4329 -0.9014 -0.0048
vn 0.1111 -0.1044 -0.9883
vn 0.2085 0.9780 0.0092
vn -0.9637 -0.2669 0.0030
vn 0.2491 -0.9684 -0.0130
vn -0.2565 0.9666 -0.0000
vn 0.9263 0.3768 0.0028
vn 0.1155 -0.0207 -0.9931
vn -0.4329 -0.9014 0.0048
vn 0.1111 -0.1044 0.9883
vn 0.2085 0.9780 -0.0092
vn -0.9633 -0.2684 -0.0042
vn -0.9930 0.1016 -0.0608
vn 0.0012 0.9908 0.1353
vn 0.1721 -0.9687 0.1787
vn -0.5073 0.8513 0.1337
vn 0.5831 0.0572 0.8104
vn 0.6560 -0.7354 -0.1697
vn 0.4854 -0.8665 -0.1162
vn 0.9013 -0.4116 -0.1350
vn -0.4270 0.8939 0.1364
vn 0.3753 0.2790 -0.8839
vn 0.0346 0.9777 0.2072
vn 0.1088 0.9737 0.2004
vn 0.1013 0.1909 -0.9764
vn 0.1742 -0.1287 0.9763
vn 0.6520 -0.7523 -0.0945
vn -0.6877 -0.7211 0.0841
vn -0.6790 -0.7271 -0.1016
vn 0.6691 -0.7432 -0.0034
vn 0.1511 0.9555 -0.2532
vn 0.0161 0.9547 -0.2971
vn -0.4962 0.8206 -0.2834
vn 0.9156 -0.3937 0.0816
vn 0.4967 -0.8622 0.0994
vn 0.6511 -0.7381 0.1769
vn -0.5073 0.8513 -0.1337
vn 0.1721 -0.9687 -0.1787
vn 0.0067 0.9917 -0.1280
vn -0.9948 0.0914 0.0440
vn 0.0677 0.2187 0.9734
vn 0.1309 -0.1055 -0.9858
vn 0.5793 0.0898 -0.8102
vn 0.3777 0.3143 0.8710
vn -0.5369 -0.8437 0.0019
vn 0.0929 -0.1440 -0.9852
vn 0.9646 0.2635 0.0048
vn 0.0827 -0.1281 0.9883
vn -0.9995 -0.0289 -0.0092
vn 0.4361 0.8999 -0.0030
vn 0.6112 0.7915 -0.0007
vn -0.8266 0.5627 -0.0000
vn -0.0274 -0.0458 0.9986
vn 0.1257 0.3527 -0.9273
vn 0.0616 0.1028 -0.9928
vn -0.0249 -0.0540 0.9982
vn -0.9318 0.3629 -0.0059
vn 0.8936 -0.4486 0.0132
vn -0.5375 -0.8433 -0.0028
vn -0.0004 -0.1174 0.9931
vn 0.9646 0.2635 -0.0048
vn 0.0827 -0.1281 -0.9883
vn -0.9995 -0.0289 0.0092
vn 0.4375 0.8992 0.0042
vn -0.0328 -0.0919 -0.9952
vn 0.1257 0.3527 0.9273
vn 0.0616 0.1028 0.9928
vn -0.0278 -0.0463 -0.9985
vn -0.9318 0.3629 0.0059
vn 0.8912 -0.4536 -0.0061
vt 0.375000 0.000000
vt 0.625000 0.250000
vt 0.375000 0.250000
vt 0.625000 0.500000
vt 0.375000 0.500000
vt 0.375000 0.750000
vt 0.625000 0.750000
vt 0.375000 1.000000
vt 0.625000 0.000000
vt 0.875000 0.500000
vt 0.625000 1.000000
vt 0.125000 0.750000
vt 0.125000 0.500000
vt 0.875000 0.625000
vt 0.500000 0.500000
vt 0.500000 0.250000
vt 0.625000 0.625000
vt 0.500000 0.750000
vt 0.500000 1.000000
vt 0.375000 0.625000
vt 0.125000 0.625000
vt 0.875000 0.750000
vt 0.500000 0.625000
vt 0.500000 0.125000
vt 0.500000 0.000000
vt 0.375000 0.125000
vt 0.625000 0.125000
s 0
usemtl Material.013
f 1/1/1 4/2/1 3/3/1
f 3/3/2 8/4/2 7/5/2
f 8/4/3 5/6/3 7/5/3
f 6/7/4 1/8/4 5/6/4
f 7/5/5 13/3/5 3/3/5
f 2/9/6 10/2/6 4/2/6
f 10/10/7 12/7/7 11/4/7
f 6/7/8 9/11/8 2/11/8
f 8/4/9 10/2/9 11/4/9
f 6/7/10 11/4/10 12/7/10
f 15/5/11 20/6/11 19/5/11
f 3/3/12 14/1/12 1/1/12
f 7/5/13 16/6/13 15/5/13
f 5/6/14 14/8/14 16/6/14
f 20/6/14 22/8/14 24/6/14
f 13/3/15 18/1/15 14/1/15
f 14/8/16 20/6/16 16/6/16
f 13/3/17 19/5/17 17/3/17
f 23/5/18 22/12/18 21/13/18
f 19/5/5 21/3/5 17/3/5
f 20/6/19 23/5/19 19/5/19
f 22/8/14 26/8/14 28/8/14
f 25/3/20 28/1/20 26/1/20
f 22/12/21 27/13/21 21/13/21
f 21/3/5 25/3/5 17/3/5
f 17/3/22 26/1/22 18/1/22
f 29/1/23 32/2/23 30/9/23
f 31/3/24 36/4/24 32/2/24
f 33/6/25 36/4/25 35/5/25
f 29/8/26 34/7/26 33/6/26
f 41/3/14 35/5/14 31/3/14
f 38/2/27 30/9/27 32/2/27
f 40/7/28 38/10/28 39/4/28
f 37/11/29 34/7/29 30/11/29
f 36/4/30 38/2/30 32/2/30
f 34/7/31 39/4/31 36/4/31
f 43/5/32 48/6/32 44/6/32
f 42/1/33 31/3/33 29/1/33
f 35/5/34 44/6/34 33/6/34
f 33/6/5 42/8/5 29/8/5
f 48/6/5 50/8/5 46/8/5
f 46/1/35 41/3/35 42/1/35
f 48/6/36 42/8/36 44/6/36
f 41/3/37 47/5/37 43/5/37
f 50/12/18 51/5/18 49/13/18
f 49/3/14 47/5/14 45/3/14
f 51/5/19 48/6/19 47/5/19
f 50/8/5 54/8/5 46/8/5
f 56/1/20 53/3/20 54/1/20
f 55/13/21 50/12/21 49/13/21
f 53/3/14 49/3/14 45/3/14
f 54/1/22 45/3/22 46/1/22
f 86/14/38 84/10/38 98/14/38
f 60/2/39 101/15/39 100/16/39
f 88/17/40 68/7/40 90/17/40
f 102/18/41 58/11/41 99/19/41
f 87/20/42 57/12/42 85/21/42
f 88/17/43 58/22/43 62/7/43
f 104/18/44 71/6/44 106/18/44
f 101/15/45 65/4/45 103/15/45
f 102/18/46 67/6/46 104/18/46
f 87/20/47 66/5/47 89/20/47
f 91/20/48 74/5/48 93/20/48
f 89/20/49 70/5/49 91/20/49
f 90/17/50 72/7/50 92/17/50
f 65/4/51 105/15/51 103/15/51
f 94/17/52 80/7/52 96/17/52
f 72/7/53 94/17/53 92/17/53
f 105/15/54 73/4/54 107/15/54
f 71/6/55 108/18/55 106/18/55
f 114/23/56 80/7/56 110/18/56
f 107/15/57 77/4/57 109/15/57
f 108/18/58 79/6/58 110/18/58
f 93/20/59 78/5/59 95/20/59
f 113/24/60 84/2/60 112/16/60
f 85/21/61 82/12/61 97/21/61
f 100/16/62 81/3/62 112/16/62
f 99/19/63 83/11/63 111/19/63
f 85/21/64 81/13/64 59/13/64
f 83/9/60 113/24/60 111/25/60
f 93/20/65 79/6/65 75/6/65
f 77/4/66 114/23/66 109/15/66
f 69/4/67 94/17/67 73/4/67
f 94/17/68 77/4/68 73/4/68
f 90/17/69 69/4/69 65/4/69
f 89/20/70 71/6/70 67/6/70
f 91/20/71 75/6/71 71/6/71
f 87/20/72 67/6/72 61/6/72
f 60/10/73 88/17/73 64/4/73
f 59/13/74 87/20/74 85/21/74
f 88/17/75 65/4/75 64/4/75
f 86/14/76 83/22/76 58/22/76
f 78/5/66 114/23/66 95/20/66
f 82/1/60 113/24/60 97/26/60
f 99/19/77 82/8/77 57/8/77
f 100/16/78 84/2/78 60/2/78
f 113/24/60 81/3/60 97/26/60
f 108/18/79 80/7/79 76/7/79
f 107/15/80 78/5/80 74/5/80
f 114/23/66 79/6/66 95/20/66
f 106/18/81 76/7/81 72/7/81
f 70/5/82 107/15/82 74/5/82
f 103/15/83 70/5/83 66/5/83
f 102/18/84 68/7/84 62/7/84
f 101/15/85 66/5/85 63/5/85
f 68/7/86 106/18/86 72/7/86
f 102/18/87 57/8/87 61/6/87
f 59/3/88 101/15/88 63/5/88
f 115/1/89 118/2/89 117/3/89
f 117/3/90 122/4/90 121/5/90
f 122/4/91 119/6/91 121/5/91
f 120/7/92 115/8/92 119/6/92
f 121/5/14 127/3/14 117/3/14
f 116/9/93 124/2/93 118/2/93
f 124/10/94 126/7/94 125/4/94
f 120/7/95 123/11/95 116/11/95
f 122/4/96 124/2/96 125/4/96
f 120/7/97 125/4/97 126/7/97
f 140/5/98 134/6/98 133/5/98
f 117/3/99 128/1/99 115/1/99
f 121/5/100 130/6/100 129/5/100
f 119/6/5 128/8/5 130/6/5
f 134/6/5 136/8/5 138/6/5
f 141/3/101 132/1/101 142/1/101
f 139/6/102 132/8/102 134/6/102
f 140/5/103 131/3/103 141/3/103
f 137/5/104 136/12/104 135/13/104
f 133/5/14 135/3/14 131/3/14
f 134/6/105 137/5/105 133/5/105
f 131/3/106 136/1/106 132/1/106
f 129/5/107 141/3/107 127/3/107
f 130/6/108 142/8/108 139/6/108
f 127/3/109 142/1/109 128/1/109
f 129/5/110 139/6/110 140/5/110
f 143/1/111 146/2/111 144/9/111
f 145/3/112 150/4/112 146/2/112
f 147/6/113 150/4/113 149/5/113
f 143/8/114 148/7/114 147/6/114
f 155/3/5 149/5/5 145/3/5
f 152/2/115 144/9/115 146/2/115
f 154/7/116 152/10/116 153/4/116
f 151/11/117 148/7/117 144/11/117
f 153/4/118 146/2/118 150/4/118
f 148/7/119 153/4/119 150/4/119
f 168/5/120 162/6/120 167/6/120
f 156/1/121 145/3/121 143/1/121
f 149/5/122 158/6/122 147/6/122
f 147/6/14 156/8/14 143/8/14
f 162/6/14 164/8/14 160/8/14
f 160/1/123 169/3/123 170/1/123
f 167/6/124 160/8/124 170/8/124
f 159/3/125 168/5/125 169/3/125
f 164/12/104 165/5/104 163/13/104
f 163/3/5 161/5/5 159/3/5
f 161/5/105 166/6/105 162/6/105
f 164/1/106 159/3/106 160/1/106
f 169/3/126 157/5/126 155/3/126
f 158/6/127 170/8/127 156/8/127
f 170/1/128 155/3/128 156/1/128
f 157/5/129 167/6/129 158/6/129
f 1/1/130 2/9/130 4/2/130
f 3/3/131 4/2/131 8/4/131
f 8/4/132 6/7/132 5/6/132
f 6/7/133 2/11/133 1/8/133
f 7/5/5 15/5/5 13/3/5
f 2/9/134 9/9/134 10/2/134
f 10/10/7 9/22/7 12/7/7
f 6/7/8 12/7/8 9/11/8
f 8/4/9 4/2/9 10/2/9
f 6/7/135 8/4/135 11/4/135
f 15/5/136 16/6/136 20/6/136
f 3/3/12 13/3/12 14/1/12
f 7/5/13 5/6/13 16/6/13
f 5/6/14 1/8/14 14/8/14
f 20/6/14 18/8/14 22/8/14
f 13/3/137 17/3/137 18/1/137
f 14/8/16 18/8/16 20/6/16
f 13/3/17 15/5/17 19/5/17
f 23/5/18 24/6/18 22/12/18
f 19/5/5 23/5/5 21/3/5
f 20/6/19 24/6/19 23/5/19
f 22/8/14 18/8/14 26/8/14
f 25/3/20 27/3/20 28/1/20
f 22/12/21 28/12/21 27/13/21
f 21/3/5 27/3/5 25/3/5
f 17/3/22 25/3/22 26/1/22
f 29/1/138 31/3/138 32/2/138
f 31/3/139 35/5/139 36/4/139
f 33/6/140 34/7/140 36/4/140
f 29/8/141 30/11/141 34/7/141
f 41/3/14 43/5/14 35/5/14
f 38/2/142 37/9/142 30/9/142
f 40/7/28 37/22/28 38/10/28
f 37/11/29 40/7/29 34/7/29
f 36/4/30 39/4/30 38/2/30
f 34/7/143 40/7/143 39/4/143
f 43/5/11 47/5/11 48/6/11
f 42/1/33 41/3/33 31/3/33
f 35/5/34 43/5/34 44/6/34
f 33/6/5 44/6/5 42/8/5
f 48/6/5 52/6/5 50/8/5
f 46/1/137 45/3/137 41/3/137
f 48/6/36 46/8/36 42/8/36
f 41/3/37 45/3/37 47/5/37
f 50/12/18 52/6/18 51/5/18
f 49/3/14 51/5/14 47/5/14
f 51/5/19 52/6/19 48/6/19
f 50/8/5 56/8/5 54/8/5
f 56/1/20 55/3/20 53/3/20
f 55/13/21 56/12/21 50/12/21
f 53/3/14 55/3/14 49/3/14
f 54/1/22 53/3/22 45/3/22
f 86/14/144 60/10/144 84/10/144
f 60/2/39 64/4/39 101/15/39
f 88/17/145 62/7/145 68/7/145
f 102/18/41 62/7/41 58/11/41
f 87/20/146 61/6/146 57/12/146
f 88/17/147 86/14/147 58/22/147
f 104/18/148 67/6/148 71/6/148
f 101/15/45 64/4/45 65/4/45
f 102/18/46 61/6/46 67/6/46
f 87/20/149 63/5/149 66/5/149
f 91/20/150 70/5/150 74/5/150
f 89/20/151 66/5/151 70/5/151
f 90/17/152 68/7/152 72/7/152
f 65/4/153 69/4/153 105/15/153
f 94/17/154 76/7/154 80/7/154
f 72/7/155 76/7/155 94/17/155
f 105/15/156 69/4/156 73/4/156
f 71/6/157 75/6/157 108/18/157
f 114/23/66 96/17/66 80/7/66
f 107/15/57 73/4/57 77/4/57
f 108/18/58 75/6/58 79/6/58
f 93/20/158 74/5/158 78/5/158
f 113/24/60 98/27/60 84/2/60
f 85/21/159 57/12/159 82/12/159
f 100/16/62 59/3/62 81/3/62
f 99/19/63 58/11/63 83/11/63
f 85/21/160 97/21/160 81/13/160
f 83/9/60 98/27/60 113/24/60
f 93/20/161 95/20/161 79/6/161
f 77/4/66 96/17/66 114/23/66
f 69/4/162 92/17/162 94/17/162
f 94/17/163 96/17/163 77/4/163
f 90/17/164 92/17/164 69/4/164
f 89/20/165 91/20/165 71/6/165
f 91/20/166 93/20/166 75/6/166
f 87/20/167 89/20/167 67/6/167
f 60/10/168 86/14/168 88/17/168
f 59/13/169 63/5/169 87/20/169
f 88/17/170 90/17/170 65/4/170
f 86/14/171 98/14/171 83/22/171
f 78/5/66 109/15/66 114/23/66
f 82/1/60 111/25/60 113/24/60
f 99/19/77 111/19/77 82/8/77
f 100/16/78 112/16/78 84/2/78
f 113/24/60 112/16/60 81/3/60
f 108/18/79 110/18/79 80/7/79
f 107/15/80 109/15/80 78/5/80
f 114/23/66 110/18/66 79/6/66
f 106/18/172 108/18/172 76/7/172
f 70/5/173 105/15/173 107/15/173
f 103/15/174 105/15/174 70/5/174
f 102/18/84 104/18/84 68/7/84
f 101/15/85 103/15/85 66/5/85
f 68/7/175 104/18/175 106/18/175
f 102/18/87 99/19/87 57/8/87
f 59/3/88 100/16/88 101/15/88
f 115/1/176 116/9/176 118/2/176
f 117/3/177 118/2/177 122/4/177
f 122/4/178 120/7/178 119/6/178
f 120/7/179 116/11/179 115/8/179
f 121/5/14 129/5/14 127/3/14
f 116/9/180 123/9/180 124/2/180
f 124/10/94 123/22/94 126/7/94
f 120/7/95 126/7/95 123/11/95
f 122/4/96 118/2/96 124/2/96
f 120/7/181 122/4/181 125/4/181
f 140/5/182 139/6/182 134/6/182
f 117/3/99 127/3/99 128/1/99
f 121/5/100 119/6/100 130/6/100
f 119/6/5 115/8/5 128/8/5
f 134/6/5 132/8/5 136/8/5
f 141/3/183 131/3/183 132/1/183
f 139/6/184 142/8/184 132/8/184
f 140/5/185 133/5/185 131/3/185
f 137/5/104 138/6/104 136/12/104
f 133/5/14 137/5/14 135/3/14
f 134/6/105 138/6/105 137/5/105
f 131/3/106 135/3/106 136/1/106
f 129/5/186 140/5/186 141/3/186
f 130/6/187 128/8/187 142/8/187
f 127/3/188 141/3/188 142/1/188
f 129/5/189 130/6/189 139/6/189
f 143/1/190 145/3/190 146/2/190
f 145/3/191 149/5/191 150/4/191
f 147/6/192 148/7/192 150/4/192
f 143/8/193 144/11/193 148/7/193
f 155/3/5 157/5/5 149/5/5
f 152/2/194 151/9/194 144/9/194
f 154/7/116 151/22/116 152/10/116
f 151/11/117 154/7/117 148/7/117
f 153/4/118 152/2/118 146/2/118
f 148/7/195 154/7/195 153/4/195
f 168/5/98 161/5/98 162/6/98
f 156/1/121 155/3/121 145/3/121
f 149/5/122 157/5/122 158/6/122
f 147/6/14 158/6/14 156/8/14
f 162/6/14 166/6/14 164/8/14
f 160/1/183 159/3/183 169/3/183
f 167/6/196 162/6/196 160/8/196
f 159/3/197 161/5/197 168/5/197
f 164/12/104 166/6/104 165/5/104
f 163/3/5 165/5/5 161/5/5
f 161/5/105 165/5/105 166/6/105
f 164/1/106 163/3/106 159/3/106
f 169/3/198 168/5/198 157/5/198
f 158/6/199 167/6/199 170/8/199
f 170/1/200 169/3/200 155/3/200
f 157/5/201 168/5/201 167/6/201
