# Blender 4.0.2
# www.blender.org
mtllib pekka_ja_paetkae_light.mtl
o Cube
v -0.250000 0.450000 0.850000
v -0.250000 2.950000 0.850000
v -0.250000 0.450000 0.750000
v -0.250000 2.950000 0.750000
v -0.150000 0.450000 0.850000
v -0.150000 2.850000 0.850000
v -0.150000 0.450000 0.750000
v -0.150000 2.850000 0.750000
v -0.280000 -0.050000 0.880000
v -0.280000 -0.050000 0.720000
v -0.120000 -0.050000 0.880000
v -0.120000 -0.050000 0.720000
v 1.050000 2.950000 0.700000
v 1.050000 2.950000 0.900000
v 1.050000 3.050000 0.700000
v 1.050000 3.050000 0.900000
v 0.800000 2.950000 0.850000
v 0.800000 3.050000 0.750000
v 0.800000 3.050000 0.850000
v 0.800000 2.950000 0.750000
v 1.110000 2.950000 0.750000
v 1.110000 2.950000 0.850000
v 1.110000 3.050000 0.750000
v 1.110000 3.050000 0.850000
vn -1.0000 -0.0000 -0.0000
vn -0.0000 -0.0000 -1.0000
vn 1.0000 -0.0000 -0.0000
vn -0.0000 -0.0000 1.0000
vn -0.0000 0.0599 -0.9982
vn -0.0000 1.0000 -0.0000
vn -0.0000 -1.0000 -0.0000
vn -0.9982 0.0599 -0.0000
vn 0.9982 0.0599 -0.0000
vn -0.0000 0.0599 0.9982
vn -0.1961 -0.0000 0.9806
vn 0.6402 -0.0000 -0.7682
vn -0.1961 -0.0000 -0.9806
vn 0.1047 -0.9945 -0.0000
vn -0.0948 0.9955 -0.0000
vn 0.6402 -0.0000 0.7682
vt 0.375000 0.000000
vt 0.625000 0.000000
vt 0.625000 0.250000
vt 0.375000 0.250000
vt 0.625000 0.500000
vt 0.375000 0.500000
vt 0.625000 0.750000
vt 0.375000 0.750000
vt 0.625000 1.000000
vt 0.375000 1.000000
vt 0.125000 0.500000
vt 0.125000 0.750000
vt 0.875000 0.500000
vt 0.875000 0.750000
s 0
usemtl metal
f 1/1/1 2/2/1 4/3/1 3/4/1
f 3/4/2 4/3/2 8/5/2 7/6/2
f 7/6/3 8/5/3 6/7/3 5/8/3
f 5/8/4 6/7/4 2/9/4 1/10/4
f 3/4/5 7/6/5 12/6/5 10/4/5
f 18/3/6 19/2/6 16/2/6 15/3/6
f 10/11/7 12/6/7 11/8/7 9/12/7
f 1/1/8 3/4/8 10/4/8 9/1/8
f 7/6/9 5/8/9 11/8/9 12/6/9
f 5/8/10 1/10/10 9/10/10 11/8/10
f 19/9/11 17/7/11 14/7/11 16/9/11
f 13/5/12 15/3/12 23/3/12 21/5/12
f 17/7/7 20/5/7 13/5/7 14/7/7
f 20/5/13 18/3/13 15/3/13 13/5/13
f 8/5/2 4/3/2 18/3/2 20/5/2
f 6/7/14 8/5/14 20/5/14 17/7/14
f 2/9/4 6/7/4 17/7/4 19/9/4
f 4/3/15 2/2/15 19/2/15 18/3/15
f 21/5/3 23/13/3 24/14/3 22/7/3
f 15/3/6 16/2/6 24/2/6 23/3/6
f 14/7/7 13/5/7 21/5/7 22/7/7
f 16/9/16 14/7/16 22/7/16 24/9/16
o Circle
v 1.300000 0.060000 0.647358
v 1.180660 0.060000 0.704829
v 1.151185 0.060000 0.833966
v 1.233771 0.060000 0.937526
v 1.366229 0.060000 0.937526
v 1.448815 0.060000 0.833966
v 1.419340 0.060000 0.704829
v 1.300000 -0.002870 -0.200000
v 0.518169 -0.002870 0.176510
v 0.325072 -0.002870 1.022521
v 0.866116 -0.002870 1.700969
v 1.733884 -0.002870 1.700969
v 2.274928 -0.002870 1.022521
v 2.081831 -0.002870 0.176510
v 0.518169 0.060000 0.176510
v 1.300000 0.060000 -0.200000
v 0.325072 0.060000 1.022521
v 0.866116 0.060000 1.700969
v 1.733884 0.060000 1.700969
v 2.274928 0.060000 1.022521
v 2.081831 0.060000 0.176510
v 0.596803 0.060000 0.239218
v 1.300000 0.060000 -0.099423
v 0.423127 0.060000 1.000141
v 0.909755 0.060000 1.610353
v 1.690245 0.060000 1.610353
v 2.176873 0.060000 1.000141
v 2.003197 0.060000 0.239218
vn -0.0000 1.0000 -0.0000
vn 0.9749 -0.0000 -0.2225
vn -0.0000 -0.0000 1.0000
vn -0.9749 -0.0000 -0.2225
vn 0.4339 -0.0000 -0.9010
vn 0.7818 -0.0000 0.6235
vn -0.7818 -0.0000 0.6235
vn -0.4339 -0.0000 -0.9010
vt 0.000000 0.000000
s 0
usemtl Material.009
f 30/15/17 31/15/17 27/15/17
f 37/15/18 45/15/18 44/15/18
f 35/15/19 43/15/19 42/15/19
f 33/15/20 41/15/20 39/15/20
f 38/15/21 40/15/21 45/15/21
f 36/15/22 44/15/22 43/15/22
f 34/15/23 42/15/23 41/15/23
f 32/15/24 39/15/24 40/15/24
f 40/15/17 46/15/17 47/15/17
f 39/15/17 48/15/17 46/15/17
f 48/15/17 42/15/17 49/15/17
f 42/15/17 50/15/17 49/15/17
f 43/15/17 51/15/17 50/15/17
f 44/15/17 52/15/17 51/15/17
f 52/15/17 40/15/17 47/15/17
f 47/15/17 26/15/17 25/15/17
f 26/15/17 48/15/17 27/15/17
f 48/15/17 28/15/17 27/15/17
f 49/15/17 29/15/17 28/15/17
f 50/15/17 30/15/17 29/15/17
f 51/15/17 31/15/17 30/15/17
f 52/15/17 25/15/17 31/15/17
f 25/15/17 26/15/17 31/15/17
f 26/15/17 27/15/17 31/15/17
f 27/15/17 28/15/17 29/15/17
f 29/15/17 30/15/17 27/15/17
f 37/15/18 38/15/18 45/15/18
f 35/15/19 36/15/19 43/15/19
f 33/15/20 34/15/20 41/15/20
f 38/15/21 32/15/21 40/15/21
f 36/15/22 37/15/22 44/15/22
f 34/15/23 35/15/23 42/15/23
f 32/15/24 33/15/24 39/15/24
f 40/15/17 39/15/17 46/15/17
f 39/15/17 41/15/17 48/15/17
f 48/15/17 41/15/17 42/15/17
f 42/15/17 43/15/17 50/15/17
f 43/15/17 44/15/17 51/15/17
f 44/15/17 45/15/17 52/15/17
f 52/15/17 45/15/17 40/15/17
f 47/15/17 46/15/17 26/15/17
f 26/15/17 46/15/17 48/15/17
f 48/15/17 49/15/17 28/15/17
f 49/15/17 50/15/17 29/15/17
f 50/15/17 51/15/17 30/15/17
f 51/15/17 52/15/17 31/15/17
f 52/15/17 47/15/17 25/15/17
