# Blender 4.0.2
# www.blender.org
mtllib roadL.mtl
o Plane.004
v 2.723874 -0.491390 -4.999999
v -4.999999 0.000000 -5.000001
v 2.723871 -0.491390 5.000001
v -5.000001 0.000000 4.999999
v 0.000002 0.000000 -5.000000
v -0.000002 0.000000 5.000000
v -6.999999 -0.200000 -5.000002
v -7.000001 -0.200000 4.999998
v -2.400001 0.010000 1.999999
v -2.600001 0.010000 1.999999
v -2.400001 0.010000 3.999999
v -2.600001 0.010000 3.999999
v -7.000003 -0.200000 5.000000
v -6.999997 -0.200000 -5.000000
v 4.230710 -0.990798 -4.999999
v 4.230707 -0.990798 5.000001
v 5.634219 -1.094123 -4.999999
v 5.634216 -1.094123 5.000001
v 0.000002 -2.000000 -5.000000
v -0.000002 -2.000000 5.000000
v 5.634219 1.005877 -4.999999
v 5.634216 1.005877 5.000001
vn 0.1775 0.9841 -0.0000
vn -0.0995 0.9950 -0.0000
vn -0.0000 1.0000 -0.0000
vn 0.3146 0.9492 -0.0000
vn 0.0734 0.9973 -0.0000
vn -1.0000 -0.0000 -0.0000
vt 0.500000 0.000000
vt 0.000000 1.000000
vt 0.000000 0.000000
vt 1.000000 0.000000
vt 1.000000 1.000000
vt 0.500000 1.000000
s 0
usemtl Material.006
f 5/1/6 20/6/6 6/6/6
f 5/1/6 19/1/6 20/6/6
usemtl Material.020
f 5/1/1 3/2/1 1/3/1
f 2/4/2 8/5/2 4/5/2
f 10/4/3 11/2/3 9/3/3
f 5/1/1 6/6/1 3/2/1
f 2/4/2 7/4/2 8/5/2
f 10/4/3 12/5/3 11/2/3
f 1/3/4 16/2/4 15/3/4
f 16/2/5 17/3/5 15/3/5
f 1/3/4 3/2/4 16/2/4
f 16/2/5 18/2/5 17/3/5
usemtl Material.023
f 18/2/6 21/3/6 17/3/6
f 18/2/6 22/2/6 21/3/6
l 13 14
