# Blender 4.0.2
# www.blender.org
mtllib road.mtl
o Plane.003
v -4.099481 -0.574394 5.000000
v 5.000000 0.000000 5.000000
v -4.099481 -0.574394 -5.000000
v 5.000000 0.000000 -5.000000
v 0.000000 0.000000 5.000000
v 0.000000 0.000000 -5.000000
v 7.000000 -0.200000 5.000000
v 7.000000 -0.200000 -5.000000
v 2.400000 0.020000 -2.000000
v 2.600000 0.020000 -2.000000
v 2.400000 0.020000 -4.000000
v 2.600000 0.020000 -4.000000
v 7.000002 -0.200000 -5.000002
v 6.999998 -0.200000 4.999998
v -5.191176 0.117647 5.000000
v -5.191176 0.117647 -5.000000
v -6.616090 0.907267 5.000000
v -6.616090 0.907267 -5.000000
v -4.099481 0.425606 -1.666667
v -4.099481 -0.574394 1.666667
v 0.000000 0.000000 1.666667
v 0.000000 0.000000 -1.666667
v -5.191176 0.117647 -1.666667
v -5.191176 0.774425 1.666667
v -6.616090 0.602492 -1.666666
v -6.616090 0.907267 1.666667
v -2.039296 -0.162357 -5.000000
v -2.039296 -0.162357 5.000000
v -2.039296 -0.162357 1.666667
v -2.039296 0.013569 -1.666667
v 5.000000 0.000000 5.000000
v 5.000000 0.000000 -5.000000
v 5.000000 -0.300000 5.000000
v 5.000000 -0.300000 -5.000000
v -6.500001 10.000000 5.000000
v -6.499999 0.000000 5.000000
v -6.500002 10.000000 -5.000000
v -6.500000 0.000000 -5.000000
vn 0.3221 0.9467 -0.0000
vn 0.0995 0.9950 -0.0000
vn -0.0000 1.0000 -0.0000
vn 0.3167 0.9306 -0.1834
vn 0.1959 0.9793 -0.0517
vn 0.5354 0.8446 -0.0000
vn 0.5190 0.8187 -0.2456
vn 0.7638 0.6182 0.1855
vn 0.4777 0.8620 0.1698
vn -0.1961 0.9806 -0.0000
vn -0.1959 0.9793 0.0517
vn -0.0793 0.9955 0.0525
vn -0.0794 0.9968 -0.0000
vn 0.0067 1.0000 -0.0000
vn 0.4832 0.8719 0.0797
vn 0.0924 0.9916 -0.0907
vn -0.1881 0.9407 -0.2822
vn 0.7714 0.6243 0.1230
vn -0.2715 0.9624 -0.0000
vn -0.2667 0.9456 -0.1863
vn 0.0928 0.9957 -0.0000
vn 0.1881 0.9407 0.2822
vn -0.0793 0.9955 -0.0525
vn -1.0000 -0.0000 -0.0000
vn 1.0000 -0.0000 -0.0000
vt 0.000000 1.000000
vt 0.000000 0.666667
vt 1.000000 0.000000
vt 1.000000 1.000000
vt 0.000000 0.000000
vt 0.000000 0.333333
vt 0.412037 1.000000
vt 0.412037 0.666667
vt 0.412037 0.333333
vt 0.412037 0.000000
vt 0.500000 0.333333
vt 0.500000 0.000000
vt 0.500000 1.000000
vt 0.500000 0.666667
s 0
usemtl Material.020
f 16/1/1 25/2/1 23/2/1
f 2/3/2 8/4/2 4/4/2
f 10/3/3 11/1/3 9/5/3
f 25/2/4 24/6/4 23/2/4
f 2/3/2 7/3/2 8/4/2
f 10/3/3 12/4/3 11/1/3
f 27/7/5 19/2/5 30/8/5
f 20/6/6 15/5/6 1/5/6
f 16/1/7 19/2/7 3/1/7
f 19/2/8 24/6/8 20/6/8
f 24/6/9 17/5/9 15/5/9
f 29/9/10 1/5/10 28/10/10
f 30/8/11 20/6/11 29/9/11
f 21/11/12 30/8/12 29/9/12
f 21/11/13 28/10/13 5/12/13
f 6/13/14 30/8/14 22/14/14
f 16/1/15 18/1/15 25/2/15
f 25/2/16 26/6/16 24/6/16
f 27/7/17 3/1/17 19/2/17
f 20/6/18 24/6/18 15/5/18
f 16/1/19 23/2/19 19/2/19
f 19/2/20 23/2/20 24/6/20
f 24/6/21 26/6/21 17/5/21
f 29/9/10 20/6/10 1/5/10
f 30/8/22 19/2/22 20/6/22
f 21/11/14 22/14/14 30/8/14
f 21/11/13 29/9/13 28/10/13
f 6/13/23 27/7/23 30/8/23
f 2/3/3 4/4/3 32/4/3 31/3/3
f 32/4/24 33/3/24 31/3/24
f 32/4/24 34/4/24 33/3/24
usemtl Material.024
f 36/3/25 37/1/25 35/5/25
f 36/3/25 38/4/25 37/1/25
l 13 14
