# Blender 4.0.2
# www.blender.org
mtllib salainen_kylttitiedosto_01.mtl
o Cube.001
v -0.131097 -0.428000 -0.028000
v -0.131097 0.868000 -0.028000
v -0.131097 -0.428000 0.028000
v -0.131097 0.868000 0.028000
v -0.187097 -0.428000 -0.028000
v -0.187097 0.868000 -0.028000
v -0.187097 -0.428000 0.028000
v -0.187097 0.868000 0.028000
v -1.251097 -0.428000 -0.028000
v -1.251097 0.868000 -0.028000
v -1.251097 -0.428000 0.028000
v -1.251097 0.868000 0.028000
v -1.307097 -0.428000 -0.028000
v -1.307097 0.868000 -0.028000
v -1.307097 -0.428000 0.028000
v -1.307097 0.868000 0.028000
v -0.047097 0.588000 -0.084000
v -0.047097 0.924000 -0.084000
v -0.047097 0.588000 -0.028000
v -0.047097 0.924000 -0.028000
v -1.391097 0.588000 -0.084000
v -1.391097 0.924000 -0.084000
v -1.391097 0.588000 -0.028000
v -1.391097 0.924000 -0.028000
v -1.174237 0.668430 -0.089600
v -1.157297 0.739480 -0.089600
v -1.174237 0.810530 -0.089600
v -1.218897 0.837480 -0.089600
v -1.263557 0.810530 -0.089600
v -1.280497 0.739480 -0.089600
v -1.263557 0.668430 -0.089600
v -1.218897 0.641480 -0.089600
v -1.193837 0.792260 -0.089600
v -1.184737 0.739480 -0.089600
v -1.193837 0.686700 -0.089600
v -1.218897 0.667520 -0.089600
v -1.243957 0.686700 -0.089600
v -1.253057 0.739480 -0.089600
v -1.243957 0.792260 -0.089600
v -1.218897 0.811440 -0.089600
v -1.062097 0.810320 -0.089600
v -1.062097 0.762440 -0.089600
v -1.112987 0.746655 -0.089600
v -1.131537 0.702520 -0.089600
v -1.113862 0.658770 -0.089600
v -1.069097 0.641480 -0.089600
v -1.045997 0.644210 -0.089600
v -1.022897 0.653240 -0.089600
v -1.022897 0.681520 -0.089600
v -1.043652 0.671055 -0.089600
v -1.064617 0.667520 -0.089600
v -1.092442 0.677705 -0.089600
v -1.104097 0.701960 -0.089600
v -1.086387 0.731675 -0.089600
v -1.037177 0.735560 -0.089600
v -1.037177 0.834960 -0.089600
v -1.122017 0.834960 -0.089600
v -1.122017 0.810320 -0.089600
v -0.860217 0.810320 -0.089600
v -0.860217 0.644000 -0.089600
v -0.832777 0.644000 -0.089600
v -0.832777 0.810320 -0.089600
v -0.766697 0.810320 -0.089600
v -0.766697 0.834960 -0.089600
v -0.926297 0.834960 -0.089600
v -0.926297 0.810320 -0.089600
v -0.713217 0.644000 -0.089600
v -0.713217 0.834960 -0.089600
v -0.740657 0.834960 -0.089600
v -0.740657 0.644000 -0.089600
v -0.647417 0.644000 -0.089600
v -0.519737 0.791000 -0.089600
v -0.519737 0.644000 -0.089600
v -0.493977 0.644000 -0.089600
v -0.493977 0.834960 -0.089600
v -0.515817 0.834960 -0.089600
v -0.645177 0.687120 -0.089600
v -0.645177 0.834960 -0.089600
v -0.670937 0.834960 -0.089600
v -0.670937 0.644000 -0.089600
v -0.445257 0.644000 -0.089600
v -0.419777 0.700280 -0.089600
v -0.338577 0.700280 -0.089600
v -0.314497 0.644000 -0.089600
v -0.286497 0.644000 -0.089600
v -0.368537 0.836080 -0.089600
v -0.387857 0.836080 -0.089600
v -0.473257 0.644000 -0.089600
v -0.408577 0.724920 -0.089600
v -0.377777 0.794080 -0.089600
v -0.349217 0.724920 -0.089600
v -0.283697 0.668640 -0.089600
v -0.283697 0.644000 -0.089600
v -0.170017 0.644000 -0.089600
v -0.170017 0.834960 -0.089600
v -0.197457 0.834960 -0.089600
v -0.197457 0.668640 -0.089600
v -0.283697 0.668640 -0.084000
v -0.283697 0.668640 -0.089600
v -0.283697 0.644000 -0.084000
v -0.283697 0.644000 -0.089600
v -0.170017 0.644000 -0.084000
v -0.170017 0.644000 -0.089600
v -0.170017 0.834960 -0.084000
v -0.170017 0.834960 -0.089600
v -0.197457 0.834960 -0.084000
v -0.197457 0.834960 -0.089600
v -0.197457 0.668640 -0.084000
v -0.197457 0.668640 -0.089600
v -0.445257 0.644000 -0.084000
v -0.445257 0.644000 -0.089600
v -0.419777 0.700280 -0.084000
v -0.419777 0.700280 -0.089600
v -0.338577 0.700280 -0.084000
v -0.338577 0.700280 -0.089600
v -0.314497 0.644000 -0.084000
v -0.314497 0.644000 -0.089600
v -0.286497 0.644000 -0.084000
v -0.286497 0.644000 -0.089600
v -0.368537 0.836080 -0.084000
v -0.368537 0.836080 -0.089600
v -0.387857 0.836080 -0.084000
v -0.387857 0.836080 -0.089600
v -0.473257 0.644000 -0.084000
v -0.473257 0.644000 -0.089600
v -0.408577 0.724920 -0.084000
v -0.408577 0.724920 -0.089600
v -0.377777 0.794080 -0.084000
v -0.377777 0.794080 -0.089600
v -0.349217 0.724920 -0.084000
v -0.349217 0.724920 -0.089600
v -0.647417 0.644000 -0.084000
v -0.647417 0.644000 -0.089600
v -0.519737 0.791000 -0.084000
v -0.519737 0.791000 -0.089600
v -0.519737 0.644000 -0.084000
v -0.519737 0.644000 -0.089600
v -0.493977 0.644000 -0.084000
v -0.493977 0.644000 -0.089600
v -0.493977 0.834960 -0.084000
v -0.493977 0.834960 -0.089600
v -0.515817 0.834960 -0.084000
v -0.515817 0.834960 -0.089600
v -0.645177 0.687120 -0.084000
v -0.645177 0.687120 -0.089600
v -0.645177 0.834960 -0.084000
v -0.645177 0.834960 -0.089600
v -0.670937 0.834960 -0.084000
v -0.670937 0.834960 -0.089600
v -0.670937 0.644000 -0.084000
v -0.670937 0.644000 -0.089600
v -0.713217 0.644000 -0.084000
v -0.713217 0.644000 -0.089600
v -0.713217 0.834960 -0.084000
v -0.713217 0.834960 -0.089600
v -0.740657 0.834960 -0.084000
v -0.740657 0.834960 -0.089600
v -0.740657 0.644000 -0.084000
v -0.740657 0.644000 -0.089600
v -0.860217 0.810320 -0.084000
v -0.860217 0.810320 -0.089600
v -0.860217 0.644000 -0.084000
v -0.860217 0.644000 -0.089600
v -0.832777 0.644000 -0.084000
v -0.832777 0.644000 -0.089600
v -0.832777 0.810320 -0.084000
v -0.832777 0.810320 -0.089600
v -0.766697 0.810320 -0.084000
v -0.766697 0.810320 -0.089600
v -0.766697 0.834960 -0.084000
v -0.766697 0.834960 -0.089600
v -0.926297 0.834960 -0.084000
v -0.926297 0.834960 -0.089600
v -0.926297 0.810320 -0.084000
v -0.926297 0.810320 -0.089600
v -1.062097 0.810320 -0.084000
v -1.062097 0.810320 -0.089600
v -1.062097 0.762440 -0.084000
v -1.062097 0.762440 -0.089600
v -1.112987 0.746655 -0.084000
v -1.112987 0.746655 -0.089600
v -1.131537 0.702520 -0.084000
v -1.131537 0.702520 -0.089600
v -1.113862 0.658770 -0.084000
v -1.113862 0.658770 -0.089600
v -1.069097 0.641480 -0.084000
v -1.069097 0.641480 -0.089600
v -1.045997 0.644210 -0.084000
v -1.045997 0.644210 -0.089600
v -1.022897 0.653240 -0.084000
v -1.022897 0.653240 -0.089600
v -1.022897 0.681520 -0.084000
v -1.022897 0.681520 -0.089600
v -1.043652 0.671055 -0.084000
v -1.043652 0.671055 -0.089600
v -1.064617 0.667520 -0.084000
v -1.064617 0.667520 -0.089600
v -1.092442 0.677705 -0.084000
v -1.092442 0.677705 -0.089600
v -1.104097 0.701960 -0.084000
v -1.104097 0.701960 -0.089600
v -1.086387 0.731675 -0.084000
v -1.086387 0.731675 -0.089600
v -1.037177 0.735560 -0.084000
v -1.037177 0.735560 -0.089600
v -1.037177 0.834960 -0.084000
v -1.037177 0.834960 -0.089600
v -1.122017 0.834960 -0.084000
v -1.122017 0.834960 -0.089600
v -1.122017 0.810320 -0.084000
v -1.122017 0.810320 -0.089600
v -1.174237 0.668430 -0.084000
v -1.174237 0.668430 -0.089600
v -1.157297 0.739480 -0.084000
v -1.157297 0.739480 -0.089600
v -1.174237 0.810530 -0.084000
v -1.174237 0.810530 -0.089600
v -1.218897 0.837480 -0.084000
v -1.218897 0.837480 -0.089600
v -1.263557 0.810530 -0.084000
v -1.263557 0.810530 -0.089600
v -1.280497 0.739480 -0.084000
v -1.280497 0.739480 -0.089600
v -1.263557 0.668430 -0.084000
v -1.263557 0.668430 -0.089600
v -1.218897 0.641480 -0.084000
v -1.218897 0.641480 -0.089600
v -1.193837 0.792260 -0.084000
v -1.193837 0.792260 -0.089600
v -1.184737 0.739480 -0.084000
v -1.184737 0.739480 -0.089600
v -1.193837 0.686700 -0.084000
v -1.193837 0.686700 -0.089600
v -1.218897 0.667520 -0.084000
v -1.218897 0.667520 -0.089600
v -1.243957 0.686700 -0.084000
v -1.243957 0.686700 -0.089600
v -1.253057 0.739480 -0.084000
v -1.253057 0.739480 -0.089600
v -1.243957 0.792260 -0.084000
v -1.243957 0.792260 -0.089600
v -1.218897 0.811440 -0.084000
v -1.218897 0.811440 -0.089600
vn 1.0000 -0.0000 -0.0000
vn -0.0000 -0.0000 1.0000
vn -1.0000 -0.0000 -0.0000
vn -0.0000 -0.0000 -1.0000
vn -0.0000 -1.0000 -0.0000
vn -0.0000 1.0000 -0.0000
vn -0.7071 -0.7071 -0.0000
vn -0.7071 0.7071 -0.0000
vn 0.7071 -0.7071 -0.0000
vn 0.7071 0.7071 -0.0000
vn 0.5420 -0.8404 -0.0000
vn -0.5507 -0.8347 -0.0000
vn 0.8345 -0.5510 -0.0000
vn 0.5510 0.8345 -0.0000
vn -0.5449 0.8385 -0.0000
vn -0.8385 -0.5449 -0.0000
vn 0.8387 0.5446 -0.0000
vn -0.0137 -0.9999 -0.0000
vn -0.8312 0.5560 -0.0000
vn -0.3500 -0.9367 -0.0000
vn 0.4149 -0.9099 -0.0000
vn -0.4132 0.9106 -0.0000
vn 0.3517 0.9361 -0.0000
vn -0.8051 0.5932 -0.0000
vn -0.6720 0.7406 -0.0000
vn -1.0000 0.0070 -0.0000
vn -0.7017 -0.7125 -0.0000
vn -0.1251 -0.9921 -0.0000
vn 0.2427 -0.9701 -0.0000
vn 0.8259 -0.5639 -0.0000
vn 0.5243 0.8515 -0.0000
vn -0.3117 0.9502 -0.0000
vn 0.0918 0.9958 -0.0000
vn 0.6720 0.7406 -0.0000
vn 0.9990 -0.0447 -0.0000
vn 0.5278 -0.8493 -0.0000
vn 0.7344 -0.6787 -0.0000
vn 0.8075 -0.5899 -0.0000
vn 0.8075 0.5899 -0.0000
vn -0.8075 0.5899 -0.0000
vn -0.8075 -0.5899 -0.0000
vn -0.8556 -0.5177 -0.0000
vn -0.8556 0.5177 -0.0000
vn 0.8556 0.5177 -0.0000
vn 0.8556 -0.5177 -0.0000
vt 0.625000 0.000000
vt 0.375000 0.250000
vt 0.375000 0.000000
vt 0.625000 0.250000
vt 0.375000 0.500000
vt 0.625000 0.500000
vt 0.375000 0.750000
vt 0.625000 0.750000
vt 0.375000 1.000000
vt 0.125000 0.750000
vt 0.125000 0.500000
vt 0.875000 0.500000
vt 0.133333 0.000000
vt 1.000000 0.000000
vt 0.200000 0.000000
vt 0.266667 0.000000
vt 0.533333 0.000000
vt 0.933333 0.000000
vt 0.066667 0.000000
vt 0.333333 0.000000
vt 0.866667 0.000000
vt 0.600000 0.000000
vt 0.000000 0.000000
vt 0.666667 0.000000
vt 0.800000 0.000000
vt 0.400000 0.000000
vt 0.733333 0.000000
vt 0.466667 0.000000
vt 0.823529 0.000000
vt 0.882353 0.000000
vt 0.941176 0.000000
vt 0.058824 0.000000
vt 0.117647 0.000000
vt 0.764706 0.000000
vt 0.176471 0.000000
vt 0.705882 0.000000
vt 0.235294 0.000000
vt 0.647059 0.000000
vt 0.411765 0.000000
vt 0.529412 0.000000
vt 0.470588 0.000000
vt 0.588235 0.000000
vt 0.294118 0.000000
vt 0.352941 0.000000
vt 0.571429 0.000000
vt 0.857143 0.000000
vt 0.714286 0.000000
vt 0.428571 0.000000
vt 0.285714 0.000000
vt 0.142857 0.000000
vt 0.555556 0.000000
vt 0.444444 0.000000
vt 0.111111 0.000000
vt 0.888889 0.000000
vt 0.777778 0.000000
vt 0.222222 0.000000
vt 0.500000 0.000000
vt 0.900000 0.000000
vt 0.700000 0.000000
vt 0.100000 0.000000
vt 0.300000 0.000000
vt 0.166667 1.000000
vt 0.000000 1.000000
vt 0.333333 1.000000
vt 0.166667 0.000000
vt 0.500000 1.000000
vt 0.666667 1.000000
vt 0.833333 1.000000
vt 1.000000 1.000000
vt 0.833333 0.000000
vt 0.125000 1.000000
vt 0.250000 1.000000
vt 0.125000 0.000000
vt 0.250000 0.000000
vt 0.625000 1.000000
vt 0.750000 1.000000
vt 0.875000 1.000000
vt 0.750000 0.000000
vt 0.875000 0.000000
vt 0.100000 1.000000
vt 0.200000 1.000000
vt 0.300000 1.000000
vt 0.400000 1.000000
vt 0.600000 1.000000
vt 0.700000 1.000000
vt 0.800000 1.000000
vt 0.900000 1.000000
vt 0.055556 0.000000
vt 0.111111 1.000000
vt 0.055556 1.000000
vt 0.277778 1.000000
vt 0.222222 1.000000
vt 0.277778 0.000000
vt 0.388889 1.000000
vt 0.444444 1.000000
vt 0.388889 0.000000
vt 0.555556 1.000000
vt 0.611111 1.000000
vt 0.611111 0.000000
vt 0.722222 1.000000
vt 0.777778 1.000000
vt 0.722222 0.000000
vt 0.888889 1.000000
vt 0.944444 1.000000
vt 0.944444 0.000000
vt 0.875000 0.750000
s 0
usemtl Material.002
f 18/1/1 19/2/1 17/3/1
f 20/4/2 23/5/2 19/2/2
f 24/6/3 21/7/3 23/5/3
f 22/8/4 17/9/4 21/7/4
f 23/5/5 17/10/5 19/11/5
f 20/12/6 22/8/6 24/6/6
f 18/1/1 20/4/1 19/2/1
f 20/4/2 24/6/2 23/5/2
f 24/6/3 22/8/3 21/7/3
f 22/8/4 18/75/4 17/9/4
f 23/5/5 21/7/5 17/10/5
f 20/12/6 18/106/6 22/8/6
usemtl Material.003
f 27/13/4 40/14/4 28/15/4
f 40/14/4 29/16/4 28/15/4
f 27/13/4 33/17/4 40/14/4
f 39/18/4 29/16/4 40/14/4
f 26/19/4 33/17/4 27/13/4
f 39/18/4 30/20/4 29/16/4
f 38/21/4 30/20/4 39/18/4
f 26/19/4 34/22/4 33/17/4
f 25/23/4 34/22/4 26/19/4
f 25/23/4 35/24/4 34/22/4
f 37/25/4 30/20/4 38/21/4
f 37/25/4 31/26/4 30/20/4
f 25/23/4 36/27/4 35/24/4
f 36/27/4 31/26/4 37/25/4
f 32/28/4 36/27/4 25/23/4
f 36/27/4 32/28/4 31/26/4
f 55/29/4 41/23/4 56/30/4
f 41/23/4 57/31/4 56/30/4
f 41/23/4 58/14/4 57/31/4
f 55/29/4 42/32/4 41/23/4
f 55/29/4 43/33/4 42/32/4
f 55/29/4 54/34/4 43/33/4
f 54/34/4 44/35/4 43/33/4
f 53/36/4 44/35/4 54/34/4
f 53/36/4 45/37/4 44/35/4
f 52/38/4 45/37/4 53/36/4
f 48/39/4 50/40/4 49/41/4
f 51/42/4 45/37/4 52/38/4
f 48/39/4 51/42/4 50/40/4
f 48/39/4 45/37/4 51/42/4
f 48/39/4 46/43/4 45/37/4
f 47/44/4 46/43/4 48/39/4
f 63/45/4 65/46/4 64/47/4
f 63/45/4 66/14/4 65/46/4
f 62/48/6 66/14/6 63/45/6
f 61/49/4 59/23/4 62/48/4
f 59/23/6 66/14/6 62/48/6
f 61/49/4 60/50/4 59/23/4
f 67/23/4 69/24/4 68/20/4
f 67/23/4 70/14/4 69/24/4
f 74/20/4 76/51/4 75/52/4
f 74/20/4 72/53/4 76/51/4
f 72/53/4 77/24/4 76/51/4
f 77/24/4 79/54/4 78/55/4
f 77/24/4 80/14/4 79/54/4
f 74/20/4 73/56/4 72/53/4
f 71/23/4 77/24/4 72/53/4
f 71/23/4 80/14/4 77/24/4
f 85/26/4 87/22/4 86/57/4
f 85/26/4 90/58/4 87/22/4
f 90/58/4 88/59/4 87/22/4
f 85/26/4 91/14/4 90/58/4
f 89/25/4 88/59/4 90/58/4
f 85/26/4 83/15/4 91/14/4
f 83/15/4 89/25/4 91/14/4
f 83/15/4 82/60/4 89/25/4
f 82/60/4 88/59/4 89/25/4
f 85/26/4 84/61/4 83/15/4
f 81/23/4 88/59/4 82/60/4
f 94/26/4 96/25/4 95/22/4
f 94/26/4 97/14/4 96/25/4
f 94/26/4 92/23/4 97/14/4
f 94/26/4 93/15/4 92/23/4
s 1
f 101/62/7 98/23/8 99/63/8
f 103/64/9 100/65/7 101/62/7
f 105/66/10 102/20/9 103/64/9
f 107/67/8 104/57/10 105/66/10
f 109/68/8 106/24/8 107/67/8
f 99/69/8 108/70/8 109/68/8
f 113/71/11 110/23/11 111/63/11
f 115/72/12 112/73/11 113/71/11
f 117/9/12 114/74/12 115/72/12
f 119/66/13 116/3/12 117/9/12
f 121/75/14 118/57/13 119/66/13
f 123/76/15 120/1/14 121/75/14
f 125/77/16 122/78/15 123/76/15
f 111/69/11 124/79/16 125/77/16
f 127/63/17 128/20/18 126/23/17
f 131/67/19 128/20/18 129/64/18
f 127/69/17 130/24/19 131/67/19
f 135/80/20 132/23/21 133/63/21
f 137/81/7 134/60/20 135/80/20
f 139/82/9 136/15/7 137/81/7
f 141/83/10 138/61/9 139/82/9
f 143/66/22 140/26/10 141/83/10
f 145/84/23 142/57/22 143/66/22
f 147/85/10 144/22/23 145/84/23
f 149/86/8 146/59/10 147/85/10
f 151/87/7 148/25/8 149/86/8
f 133/69/21 150/58/7 151/87/7
f 155/72/10 152/23/9 153/63/9
f 157/66/8 154/74/10 155/72/10
f 159/76/7 156/57/8 157/66/8
f 153/69/9 158/78/7 159/76/7
f 163/71/7 160/23/7 161/63/7
f 165/72/9 162/73/7 163/71/7
f 167/9/9 164/74/9 165/72/9
f 169/66/9 166/3/9 167/9/9
f 171/75/10 168/57/9 169/66/9
f 173/76/8 170/1/10 171/75/10
f 175/77/7 172/78/8 173/76/8
f 161/69/7 174/79/7 175/77/7
f 177/63/7 178/88/24 176/23/7
f 181/89/25 178/88/24 179/90/24
f 181/89/25 182/65/26 180/53/25
f 183/62/26 184/56/27 182/65/26
f 187/91/28 184/56/27 185/92/27
f 189/64/29 186/93/28 187/91/28
f 191/94/30 188/20/29 189/64/29
f 193/95/31 190/96/30 191/94/30
f 195/66/32 192/52/31 193/95/31
f 197/97/33 194/57/32 195/66/32
f 199/98/34 196/51/33 197/97/33
f 201/67/35 198/99/34 199/98/34
f 203/100/36 200/24/35 201/67/35
f 205/101/37 202/102/36 203/100/36
f 207/68/10 204/55/37 205/101/37
f 209/103/8 206/70/10 207/68/10
f 211/104/7 208/54/8 209/103/8
f 177/69/7 210/105/7 211/104/7
f 215/71/1 212/23/38 213/63/38
f 217/72/39 214/73/1 215/71/1
f 219/9/6 216/74/39 217/72/39
f 221/66/40 218/3/6 219/9/6
f 223/75/3 220/57/40 221/66/40
f 225/76/41 222/1/3 223/75/3
f 227/77/5 224/78/41 225/76/41
f 213/69/38 226/79/5 227/77/5
f 231/71/3 228/23/42 229/63/42
f 233/72/43 230/73/3 231/71/3
f 235/9/6 232/74/43 233/72/43
f 237/66/44 234/3/6 235/9/6
f 239/75/1 236/57/44 237/66/44
f 241/76/45 238/1/1 239/75/1
f 243/77/5 240/78/45 241/76/45
f 229/69/42 242/79/5 243/77/5
f 101/62/7 100/65/7 98/23/8
f 103/64/9 102/20/9 100/65/7
f 105/66/10 104/57/10 102/20/9
f 107/67/8 106/24/8 104/57/10
f 109/68/8 108/70/8 106/24/8
f 99/69/8 98/14/8 108/70/8
f 113/71/11 112/73/11 110/23/11
f 115/72/12 114/74/12 112/73/11
f 117/9/12 116/3/12 114/74/12
f 119/66/13 118/57/13 116/3/12
f 121/75/14 120/1/14 118/57/13
f 123/76/15 122/78/15 120/1/14
f 125/77/16 124/79/16 122/78/15
f 111/69/11 110/14/11 124/79/16
f 127/63/17 129/64/18 128/20/18
f 131/67/19 130/24/19 128/20/18
f 127/69/17 126/14/17 130/24/19
f 135/80/20 134/60/20 132/23/21
f 137/81/7 136/15/7 134/60/20
f 139/82/9 138/61/9 136/15/7
f 141/83/10 140/26/10 138/61/9
f 143/66/22 142/57/22 140/26/10
f 145/84/23 144/22/23 142/57/22
f 147/85/10 146/59/10 144/22/23
f 149/86/8 148/25/8 146/59/10
f 151/87/7 150/58/7 148/25/8
f 133/69/21 132/14/21 150/58/7
f 155/72/10 154/74/10 152/23/9
f 157/66/8 156/57/8 154/74/10
f 159/76/7 158/78/7 156/57/8
f 153/69/9 152/14/9 158/78/7
f 163/71/7 162/73/7 160/23/7
f 165/72/9 164/74/9 162/73/7
f 167/9/9 166/3/9 164/74/9
f 169/66/9 168/57/9 166/3/9
f 171/75/10 170/1/10 168/57/9
f 173/76/8 172/78/8 170/1/10
f 175/77/7 174/79/7 172/78/8
f 161/69/7 160/14/7 174/79/7
f 177/63/7 179/90/24 178/88/24
f 181/89/25 180/53/25 178/88/24
f 181/89/25 183/62/26 182/65/26
f 183/62/26 185/92/27 184/56/27
f 187/91/28 186/93/28 184/56/27
f 189/64/29 188/20/29 186/93/28
f 191/94/30 190/96/30 188/20/29
f 193/95/31 192/52/31 190/96/30
f 195/66/32 194/57/32 192/52/31
f 197/97/33 196/51/33 194/57/32
f 199/98/34 198/99/34 196/51/33
f 201/67/35 200/24/35 198/99/34
f 203/100/36 202/102/36 200/24/35
f 205/101/37 204/55/37 202/102/36
f 207/68/10 206/70/10 204/55/37
f 209/103/8 208/54/8 206/70/10
f 211/104/7 210/105/7 208/54/8
f 177/69/7 176/14/7 210/105/7
f 215/71/1 214/73/1 212/23/38
f 217/72/39 216/74/39 214/73/1
f 219/9/6 218/3/6 216/74/39
f 221/66/40 220/57/40 218/3/6
f 223/75/3 222/1/3 220/57/40
f 225/76/41 224/78/41 222/1/3
f 227/77/5 226/79/5 224/78/41
f 213/69/38 212/14/38 226/79/5
f 231/71/3 230/73/3 228/23/42
f 233/72/43 232/74/43 230/73/3
f 235/9/6 234/3/6 232/74/43
f 237/66/44 236/57/44 234/3/6
f 239/75/1 238/1/1 236/57/44
f 241/76/45 240/78/45 238/1/1
f 243/77/5 242/79/5 240/78/45
f 229/69/42 228/14/42 242/79/5
s 0
usemtl Material.011
f 2/1/1 3/2/1 1/3/1
f 4/4/2 7/5/2 3/2/2
f 8/6/3 5/7/3 7/5/3
f 6/8/4 1/9/4 5/7/4
f 7/5/5 1/10/5 3/11/5
f 4/12/6 6/8/6 8/6/6
f 10/1/1 11/2/1 9/3/1
f 12/4/2 15/5/2 11/2/2
f 16/6/3 13/7/3 15/5/3
f 14/8/4 9/9/4 13/7/4
f 15/5/5 9/10/5 11/11/5
f 12/12/6 14/8/6 16/6/6
f 2/1/1 4/4/1 3/2/1
f 4/4/2 8/6/2 7/5/2
f 8/6/3 6/8/3 5/7/3
f 6/8/4 2/75/4 1/9/4
f 7/5/5 5/7/5 1/10/5
f 4/12/6 2/106/6 6/8/6
f 10/1/1 12/4/1 11/2/1
f 12/4/2 16/6/2 15/5/2
f 16/6/3 14/8/3 13/7/3
f 14/8/4 10/75/4 9/9/4
f 15/5/5 13/7/5 9/10/5
f 12/12/6 10/106/6 14/8/6
