# Blender 4.0.2
# www.blender.org
mtllib salainen_kylttitiedosto_02.mtl
o Cube.003
v 0.049999 -0.100000 2.600000
v 0.049999 2.000000 2.600000
v 0.049999 -0.100000 2.400000
v 0.049999 2.000000 2.400000
v 0.250000 -0.100000 2.600000
v 0.250000 2.000000 2.600000
v 0.250000 -0.100000 2.400000
v 0.250000 2.000000 2.400000
v 0.049999 2.200000 2.600000
v 0.049999 2.200000 2.400000
v 0.250000 2.200000 2.600000
v 0.250000 2.200000 2.400000
v 2.750000 2.000000 2.600000
v 2.750000 2.000000 2.400000
v 2.750000 2.200000 2.600000
v 2.750000 2.200000 2.400000
v 5.450000 -0.100000 2.600000
v 5.450000 2.000000 2.600000
v 5.450000 -0.100000 2.400000
v 5.450000 2.000000 2.400000
v 5.250000 -0.100000 2.600000
v 5.250000 2.000000 2.600000
v 5.250000 -0.100000 2.400000
v 5.250000 2.000000 2.400000
v 5.450000 2.200000 2.600000
v 5.450000 2.200000 2.400000
v 5.250000 2.200000 2.600000
v 5.250000 2.200000 2.400000
v 4.056103 1.840800 2.265600
v 4.056103 2.378400 2.265600
v 4.056103 1.840800 2.355201
v 4.056103 2.378400 2.355201
v 1.905703 1.840800 2.265600
v 1.905703 2.378400 2.265600
v 1.905703 1.840800 2.355200
v 1.905703 2.378400 2.355200
v 2.252679 1.969488 2.256640
v 2.279783 2.083168 2.256640
v 2.252679 2.196848 2.256640
v 2.181223 2.239968 2.256640
v 2.109767 2.196848 2.256640
v 2.082663 2.083168 2.256640
v 2.109767 1.969488 2.256640
v 2.181223 1.926368 2.256640
v 2.221319 2.167616 2.256640
v 2.235879 2.083168 2.256640
v 2.221319 1.998720 2.256640
v 2.181223 1.968032 2.256640
v 2.141127 1.998720 2.256640
v 2.126567 2.083168 2.256640
v 2.141127 2.167616 2.256640
v 2.181223 2.198304 2.256640
v 2.432103 2.196512 2.256640
v 2.432103 2.119904 2.256640
v 2.350679 2.094648 2.256640
v 2.320999 2.024032 2.256640
v 2.349279 1.954032 2.256640
v 2.420903 1.926368 2.256640
v 2.457863 1.930736 2.256640
v 2.494823 1.945184 2.256640
v 2.494823 1.990432 2.256640
v 2.461615 1.973688 2.256640
v 2.428071 1.968032 2.256640
v 2.383551 1.984328 2.256640
v 2.364903 2.023136 2.256640
v 2.393239 2.070680 2.256640
v 2.471975 2.076896 2.256640
v 2.471975 2.235936 2.256640
v 2.336231 2.235936 2.256640
v 2.336231 2.196512 2.256640
v 2.755111 2.196512 2.256640
v 2.755111 1.930400 2.256640
v 2.799015 1.930400 2.256640
v 2.799015 2.196512 2.256640
v 2.904743 2.196512 2.256640
v 2.904743 2.235936 2.256640
v 2.649383 2.235936 2.256640
v 2.649383 2.196512 2.256640
v 2.990311 1.930400 2.256640
v 2.990311 2.235936 2.256640
v 2.946407 2.235936 2.256640
v 2.946407 1.930400 2.256640
v 3.095591 1.930400 2.256640
v 3.299879 2.165600 2.256640
v 3.299879 1.930400 2.256640
v 3.341095 1.930400 2.256640
v 3.341095 2.235936 2.256640
v 3.306151 2.235936 2.256640
v 3.099175 1.999392 2.256640
v 3.099175 2.235936 2.256640
v 3.057959 2.235936 2.256640
v 3.057959 1.930400 2.256640
v 3.419047 1.930400 2.256640
v 3.459815 2.020448 2.256640
v 3.589735 2.020448 2.256640
v 3.628263 1.930400 2.256640
v 3.673063 1.930400 2.256640
v 3.541799 2.237728 2.256640
v 3.510887 2.237728 2.256640
v 3.374247 1.930400 2.256640
v 3.477735 2.059872 2.256640
v 3.527015 2.170528 2.256640
v 3.572711 2.059872 2.256640
v 3.677543 1.969824 2.256640
v 3.677543 1.930400 2.256640
v 3.859431 1.930400 2.256640
v 3.859431 2.235936 2.256640
v 3.815527 2.235936 2.256640
v 3.815527 1.969824 2.256640
v 3.677543 1.969824 2.265600
v 3.677543 1.969824 2.256640
v 3.677543 1.930400 2.265600
v 3.677543 1.930400 2.256640
v 3.859431 1.930400 2.265600
v 3.859431 1.930400 2.256640
v 3.859431 2.235936 2.265600
v 3.859431 2.235936 2.256640
v 3.815527 2.235936 2.265600
v 3.815527 2.235936 2.256640
v 3.815527 1.969824 2.265600
v 3.815527 1.969824 2.256640
v 3.419047 1.930400 2.265600
v 3.419047 1.930400 2.256640
v 3.459815 2.020448 2.265600
v 3.459815 2.020448 2.256640
v 3.589735 2.020448 2.265600
v 3.589735 2.020448 2.256640
v 3.628263 1.930400 2.265600
v 3.628263 1.930400 2.256640
v 3.673063 1.930400 2.265600
v 3.673063 1.930400 2.256640
v 3.541799 2.237728 2.265600
v 3.541799 2.237728 2.256640
v 3.510887 2.237728 2.265600
v 3.510887 2.237728 2.256640
v 3.374247 1.930400 2.265600
v 3.374247 1.930400 2.256640
v 3.477735 2.059872 2.265600
v 3.477735 2.059872 2.256640
v 3.527015 2.170528 2.265600
v 3.527015 2.170528 2.256640
v 3.572711 2.059872 2.265600
v 3.572711 2.059872 2.256640
v 3.095591 1.930400 2.265600
v 3.095591 1.930400 2.256640
v 3.299879 2.165600 2.265600
v 3.299879 2.165600 2.256640
v 3.299879 1.930400 2.265600
v 3.299879 1.930400 2.256640
v 3.341095 1.930400 2.265600
v 3.341095 1.930400 2.256640
v 3.341095 2.235936 2.265600
v 3.341095 2.235936 2.256640
v 3.306151 2.235936 2.265600
v 3.306151 2.235936 2.256640
v 3.099175 1.999392 2.265600
v 3.099175 1.999392 2.256640
v 3.099175 2.235936 2.265600
v 3.099175 2.235936 2.256640
v 3.057959 2.235936 2.265600
v 3.057959 2.235936 2.256640
v 3.057959 1.930400 2.265600
v 3.057959 1.930400 2.256640
v 2.990311 1.930400 2.265600
v 2.990311 1.930400 2.256640
v 2.990311 2.235936 2.265600
v 2.990311 2.235936 2.256640
v 2.946407 2.235936 2.265600
v 2.946407 2.235936 2.256640
v 2.946407 1.930400 2.265600
v 2.946407 1.930400 2.256640
v 2.755111 2.196512 2.265600
v 2.755111 2.196512 2.256640
v 2.755111 1.930400 2.265600
v 2.755111 1.930400 2.256640
v 2.799015 1.930400 2.265600
v 2.799015 1.930400 2.256640
v 2.799015 2.196512 2.265600
v 2.799015 2.196512 2.256640
v 2.904743 2.196512 2.265600
v 2.904743 2.196512 2.256640
v 2.904743 2.235936 2.265600
v 2.904743 2.235936 2.256640
v 2.649383 2.235936 2.265600
v 2.649383 2.235936 2.256640
v 2.649383 2.196512 2.265600
v 2.649383 2.196512 2.256640
v 2.432103 2.196512 2.265600
v 2.432103 2.196512 2.256640
v 2.432103 2.119904 2.265600
v 2.432103 2.119904 2.256640
v 2.350679 2.094648 2.265600
v 2.350679 2.094648 2.256640
v 2.320999 2.024032 2.265600
v 2.320999 2.024032 2.256640
v 2.349279 1.954032 2.265600
v 2.349279 1.954032 2.256640
v 2.420903 1.926368 2.265600
v 2.420903 1.926368 2.256640
v 2.457863 1.930736 2.265600
v 2.457863 1.930736 2.256640
v 2.494823 1.945184 2.265600
v 2.494823 1.945184 2.256640
v 2.494823 1.990432 2.265600
v 2.494823 1.990432 2.256640
v 2.461615 1.973688 2.265600
v 2.461615 1.973688 2.256640
v 2.428071 1.968032 2.265600
v 2.428071 1.968032 2.256640
v 2.383551 1.984328 2.265600
v 2.383551 1.984328 2.256640
v 2.364903 2.023136 2.265600
v 2.364903 2.023136 2.256640
v 2.393239 2.070680 2.265600
v 2.393239 2.070680 2.256640
v 2.471975 2.076896 2.265600
v 2.471975 2.076896 2.256640
v 2.471975 2.235936 2.265600
v 2.471975 2.235936 2.256640
v 2.336231 2.235936 2.265600
v 2.336231 2.235936 2.256640
v 2.336231 2.196512 2.265600
v 2.336231 2.196512 2.256640
v 2.252679 1.969488 2.265600
v 2.252679 1.969488 2.256640
v 2.279783 2.083168 2.265600
v 2.279783 2.083168 2.256640
v 2.252679 2.196848 2.265600
v 2.252679 2.196848 2.256640
v 2.181223 2.239968 2.265600
v 2.181223 2.239968 2.256640
v 2.109767 2.196848 2.265600
v 2.109767 2.196848 2.256640
v 2.082663 2.083168 2.265600
v 2.082663 2.083168 2.256640
v 2.109767 1.969488 2.265600
v 2.109767 1.969488 2.256640
v 2.181223 1.926368 2.265600
v 2.181223 1.926368 2.256640
v 2.221319 2.167616 2.265600
v 2.221319 2.167616 2.256640
v 2.235879 2.083168 2.265600
v 2.235879 2.083168 2.256640
v 2.221319 1.998720 2.265600
v 2.221319 1.998720 2.256640
v 2.181223 1.968032 2.265600
v 2.181223 1.968032 2.256640
v 2.141127 1.998720 2.265600
v 2.141127 1.998720 2.256640
v 2.126567 2.083168 2.265600
v 2.126567 2.083168 2.256640
v 2.141127 2.167616 2.265600
v 2.141127 2.167616 2.256640
v 2.181223 2.198304 2.265600
v 2.181223 2.198304 2.256640
vn -1.0000 -0.0000 -0.0000
vn -0.0000 -0.0000 -1.0000
vn 1.0000 -0.0000 -0.0000
vn -0.0000 -0.0000 1.0000
vn -0.0000 -1.0000 -0.0000
vn -0.0000 1.0000 -0.0000
vn -0.7071 -0.7071 -0.0000
vn -0.7071 0.7071 -0.0000
vn 0.7071 -0.7071 -0.0000
vn 0.7071 0.7071 -0.0000
vn 0.5420 -0.8404 -0.0000
vn -0.5507 -0.8347 -0.0000
vn 0.8345 -0.5510 -0.0000
vn 0.5510 0.8345 -0.0000
vn -0.5449 0.8385 -0.0000
vn -0.8385 -0.5449 -0.0000
vn 0.8387 0.5446 -0.0000
vn -0.0137 -0.9999 -0.0000
vn -0.8312 0.5560 -0.0000
vn -0.3500 -0.9367 -0.0000
vn 0.4149 -0.9099 -0.0000
vn -0.4132 0.9106 -0.0000
vn 0.3517 0.9361 -0.0000
vn -0.8051 0.5932 -0.0000
vn -0.6720 0.7406 -0.0000
vn -1.0000 0.0070 -0.0000
vn -0.7017 -0.7125 -0.0000
vn -0.1251 -0.9921 -0.0000
vn 0.2427 -0.9701 -0.0000
vn 0.8259 -0.5639 -0.0000
vn 0.5243 0.8515 -0.0000
vn -0.3117 0.9502 -0.0000
vn 0.0918 0.9958 -0.0000
vn 0.6720 0.7406 -0.0000
vn 0.9990 -0.0447 -0.0000
vn 0.5278 -0.8493 -0.0000
vn 0.7344 -0.6787 -0.0000
vn 0.8075 -0.5899 -0.0000
vn 0.8075 0.5899 -0.0000
vn -0.8075 0.5899 -0.0000
vn -0.8075 -0.5899 -0.0000
vn -0.8556 -0.5177 -0.0000
vn -0.8556 0.5177 -0.0000
vn 0.8556 0.5177 -0.0000
vn 0.8556 -0.5177 -0.0000
vt 0.625000 0.000000
vt 0.375000 0.250000
vt 0.375000 0.000000
vt 0.625000 0.250000
vt 0.375000 0.500000
vt 0.625000 0.500000
vt 0.375000 0.750000
vt 0.625000 0.750000
vt 0.375000 1.000000
vt 0.125000 0.750000
vt 0.125000 0.500000
vt 0.875000 0.500000
vt 0.625000 1.000000
vt 0.133333 0.000000
vt 1.000000 0.000000
vt 0.200000 0.000000
vt 0.266667 0.000000
vt 0.533333 0.000000
vt 0.933333 0.000000
vt 0.066667 0.000000
vt 0.333333 0.000000
vt 0.866667 0.000000
vt 0.600000 0.000000
vt 0.000000 0.000000
vt 0.666667 0.000000
vt 0.800000 0.000000
vt 0.400000 0.000000
vt 0.733333 0.000000
vt 0.466667 0.000000
vt 0.823529 0.000000
vt 0.882353 0.000000
vt 0.941176 0.000000
vt 0.058824 0.000000
vt 0.117647 0.000000
vt 0.764706 0.000000
vt 0.176471 0.000000
vt 0.705882 0.000000
vt 0.235294 0.000000
vt 0.647059 0.000000
vt 0.411765 0.000000
vt 0.529412 0.000000
vt 0.470588 0.000000
vt 0.588235 0.000000
vt 0.294118 0.000000
vt 0.352941 0.000000
vt 0.571429 0.000000
vt 0.857143 0.000000
vt 0.714286 0.000000
vt 0.428571 0.000000
vt 0.285714 0.000000
vt 0.142857 0.000000
vt 0.555556 0.000000
vt 0.444444 0.000000
vt 0.111111 0.000000
vt 0.888889 0.000000
vt 0.777778 0.000000
vt 0.222222 0.000000
vt 0.500000 0.000000
vt 0.900000 0.000000
vt 0.700000 0.000000
vt 0.100000 0.000000
vt 0.300000 0.000000
vt 0.166667 1.000000
vt 0.000000 1.000000
vt 0.333333 1.000000
vt 0.166667 0.000000
vt 0.500000 1.000000
vt 0.666667 1.000000
vt 0.833333 1.000000
vt 1.000000 1.000000
vt 0.833333 0.000000
vt 0.125000 1.000000
vt 0.250000 1.000000
vt 0.125000 0.000000
vt 0.250000 0.000000
vt 0.750000 1.000000
vt 0.875000 1.000000
vt 0.750000 0.000000
vt 0.875000 0.000000
vt 0.100000 1.000000
vt 0.200000 1.000000
vt 0.300000 1.000000
vt 0.400000 1.000000
vt 0.600000 1.000000
vt 0.700000 1.000000
vt 0.800000 1.000000
vt 0.900000 1.000000
vt 0.055556 0.000000
vt 0.111111 1.000000
vt 0.055556 1.000000
vt 0.277778 1.000000
vt 0.222222 1.000000
vt 0.277778 0.000000
vt 0.388889 1.000000
vt 0.444444 1.000000
vt 0.388889 0.000000
vt 0.555556 1.000000
vt 0.611111 1.000000
vt 0.611111 0.000000
vt 0.722222 1.000000
vt 0.777778 1.000000
vt 0.722222 0.000000
vt 0.888889 1.000000
vt 0.944444 1.000000
vt 0.944444 0.000000
vt 0.875000 0.750000
s 0
usemtl metal
f 2/1/1 3/2/1 1/3/1
f 4/4/2 7/5/2 3/2/2
f 8/6/3 5/7/3 7/5/3
f 6/8/4 1/9/4 5/7/4
f 7/5/5 1/10/5 3/11/5
f 11/8/6 16/6/6 12/6/6
f 10/12/6 11/8/6 12/6/6
f 2/1/1 10/4/1 4/4/1
f 6/8/4 9/13/4 2/13/4
f 4/4/2 12/6/2 8/6/2
f 14/6/3 15/8/3 13/8/3
f 8/6/5 13/8/5 6/8/5
f 6/8/4 15/8/4 11/8/4
f 12/6/2 14/6/2 8/6/2
f 19/2/3 18/1/3 17/3/3
f 23/5/2 20/4/2 19/2/2
f 21/7/1 24/6/1 23/5/1
f 17/9/4 22/8/4 21/7/4
f 17/10/5 23/5/5 19/11/5
f 16/6/6 27/8/6 28/6/6
f 27/8/6 26/12/6 28/6/6
f 26/4/3 18/1/3 20/4/3
f 25/13/4 22/8/4 18/13/4
f 28/6/2 20/4/2 24/6/2
f 13/8/5 24/6/5 22/8/5
f 15/8/4 22/8/4 27/8/4
f 14/6/2 28/6/2 24/6/2
f 2/1/1 4/4/1 3/2/1
f 4/4/2 8/6/2 7/5/2
f 8/6/3 6/8/3 5/7/3
f 6/8/4 2/13/4 1/9/4
f 7/5/5 5/7/5 1/10/5
f 11/8/6 15/8/6 16/6/6
f 10/12/6 9/106/6 11/8/6
f 2/1/1 9/1/1 10/4/1
f 6/8/4 11/8/4 9/13/4
f 4/4/2 10/4/2 12/6/2
f 14/6/3 16/6/3 15/8/3
f 8/6/5 14/6/5 13/8/5
f 6/8/4 13/8/4 15/8/4
f 12/6/2 16/6/2 14/6/2
f 19/2/3 20/4/3 18/1/3
f 23/5/2 24/6/2 20/4/2
f 21/7/1 22/8/1 24/6/1
f 17/9/4 18/13/4 22/8/4
f 17/10/5 21/7/5 23/5/5
f 16/6/6 15/8/6 27/8/6
f 27/8/6 25/106/6 26/12/6
f 26/4/3 25/1/3 18/1/3
f 25/13/4 27/8/4 22/8/4
f 28/6/2 26/4/2 20/4/2
f 13/8/5 14/6/5 24/6/5
f 15/8/4 13/8/4 22/8/4
f 14/6/2 16/6/2 28/6/2
usemtl Material.002
f 30/1/3 31/2/3 29/3/3
f 32/4/4 35/5/4 31/2/4
f 36/6/1 33/7/1 35/5/1
f 34/8/2 29/9/2 33/7/2
f 35/5/5 29/10/5 31/11/5
f 32/12/6 34/8/6 36/6/6
f 30/1/3 32/4/3 31/2/3
f 32/4/4 36/6/4 35/5/4
f 36/6/1 34/8/1 33/7/1
f 34/8/2 30/13/2 29/9/2
f 35/5/5 33/7/5 29/10/5
f 32/12/6 30/106/6 34/8/6
usemtl Material.003
f 39/14/2 52/15/2 40/16/2
f 52/15/2 41/17/2 40/16/2
f 39/14/2 45/18/2 52/15/2
f 51/19/2 41/17/2 52/15/2
f 38/20/2 45/18/2 39/14/2
f 51/19/2 42/21/2 41/17/2
f 50/22/2 42/21/2 51/19/2
f 38/20/2 46/23/2 45/18/2
f 37/24/2 46/23/2 38/20/2
f 37/24/2 47/25/2 46/23/2
f 49/26/2 42/21/2 50/22/2
f 49/26/2 43/27/2 42/21/2
f 37/24/2 48/28/2 47/25/2
f 48/28/2 43/27/2 49/26/2
f 44/29/2 48/28/2 37/24/2
f 48/28/2 44/29/2 43/27/2
f 67/30/2 53/24/2 68/31/2
f 53/24/2 69/32/2 68/31/2
f 53/24/2 70/15/2 69/32/2
f 67/30/2 54/33/2 53/24/2
f 67/30/2 55/34/2 54/33/2
f 67/30/2 66/35/2 55/34/2
f 66/35/2 56/36/2 55/34/2
f 65/37/2 56/36/2 66/35/2
f 65/37/2 57/38/2 56/36/2
f 64/39/2 57/38/2 65/37/2
f 60/40/2 62/41/2 61/42/2
f 63/43/2 57/38/2 64/39/2
f 60/40/2 63/43/2 62/41/2
f 60/40/2 57/38/2 63/43/2
f 60/40/2 58/44/2 57/38/2
f 59/45/2 58/44/2 60/40/2
f 75/46/2 77/47/2 76/48/2
f 75/46/2 78/15/2 77/47/2
f 74/49/6 78/15/6 75/46/6
f 73/50/2 71/24/2 74/49/2
f 71/24/6 78/15/6 74/49/6
f 73/50/2 72/51/2 71/24/2
f 79/24/2 81/25/2 80/21/2
f 79/24/2 82/15/2 81/25/2
f 86/21/2 88/52/2 87/53/2
f 86/21/2 84/54/2 88/52/2
f 84/54/2 89/25/2 88/52/2
f 89/25/2 91/55/2 90/56/2
f 89/25/2 92/15/2 91/55/2
f 86/21/2 85/57/2 84/54/2
f 83/24/2 89/25/2 84/54/2
f 83/24/2 92/15/2 89/25/2
f 97/27/2 99/23/2 98/58/2
f 97/27/2 102/59/2 99/23/2
f 102/59/2 100/60/2 99/23/2
f 97/27/2 103/15/2 102/59/2
f 101/26/2 100/60/2 102/59/2
f 97/27/2 95/16/2 103/15/2
f 95/16/2 101/26/2 103/15/2
f 95/16/2 94/61/2 101/26/2
f 94/61/2 100/60/2 101/26/2
f 97/27/2 96/62/2 95/16/2
f 93/24/2 100/60/2 94/61/2
f 106/27/2 108/26/2 107/23/2
f 106/27/2 109/15/2 108/26/2
f 106/27/2 104/24/2 109/15/2
f 106/27/2 105/16/2 104/24/2
s 1
f 113/63/7 110/24/8 111/64/8
f 115/65/9 112/66/7 113/63/7
f 117/67/10 114/21/9 115/65/9
f 119/68/8 116/58/10 117/67/10
f 121/69/8 118/25/8 119/68/8
f 111/70/8 120/71/8 121/69/8
f 125/72/11 122/24/11 123/64/11
f 127/73/12 124/74/11 125/72/11
f 129/9/12 126/75/12 127/73/12
f 131/67/13 128/3/12 129/9/12
f 133/13/14 130/58/13 131/67/13
f 135/76/15 132/1/14 133/13/14
f 137/77/16 134/78/15 135/76/15
f 123/70/11 136/79/16 137/77/16
f 139/64/17 140/21/18 138/24/17
f 143/68/19 140/21/18 141/65/18
f 139/70/17 142/25/19 143/68/19
f 147/80/20 144/24/21 145/64/21
f 149/81/7 146/61/20 147/80/20
f 151/82/9 148/16/7 149/81/7
f 153/83/10 150/62/9 151/82/9
f 155/67/22 152/27/10 153/83/10
f 157/84/23 154/58/22 155/67/22
f 159/85/10 156/23/23 157/84/23
f 161/86/8 158/60/10 159/85/10
f 163/87/7 160/26/8 161/86/8
f 145/70/21 162/59/7 163/87/7
f 167/73/10 164/24/9 165/64/9
f 169/67/8 166/75/10 167/73/10
f 171/76/7 168/58/8 169/67/8
f 165/70/9 170/78/7 171/76/7
f 175/72/7 172/24/7 173/64/7
f 177/73/9 174/74/7 175/72/7
f 179/9/9 176/75/9 177/73/9
f 181/67/9 178/3/9 179/9/9
f 183/13/10 180/58/9 181/67/9
f 185/76/8 182/1/10 183/13/10
f 187/77/7 184/78/8 185/76/8
f 173/70/7 186/79/7 187/77/7
f 189/64/7 190/88/24 188/24/7
f 193/89/25 190/88/24 191/90/24
f 193/89/25 194/66/26 192/54/25
f 195/63/26 196/57/27 194/66/26
f 199/91/28 196/57/27 197/92/27
f 201/65/29 198/93/28 199/91/28
f 203/94/30 200/21/29 201/65/29
f 205/95/31 202/96/30 203/94/30
f 207/67/32 204/53/31 205/95/31
f 209/97/33 206/58/32 207/67/32
f 211/98/34 208/52/33 209/97/33
f 213/68/35 210/99/34 211/98/34
f 215/100/36 212/25/35 213/68/35
f 217/101/37 214/102/36 215/100/36
f 219/69/10 216/56/37 217/101/37
f 221/103/8 218/71/10 219/69/10
f 223/104/7 220/55/8 221/103/8
f 189/70/7 222/105/7 223/104/7
f 227/72/3 224/24/38 225/64/38
f 229/73/39 226/74/3 227/72/3
f 231/9/6 228/75/39 229/73/39
f 233/67/40 230/3/6 231/9/6
f 235/13/1 232/58/40 233/67/40
f 237/76/41 234/1/1 235/13/1
f 239/77/5 236/78/41 237/76/41
f 225/70/38 238/79/5 239/77/5
f 243/72/1 240/24/42 241/64/42
f 245/73/43 242/74/1 243/72/1
f 247/9/6 244/75/43 245/73/43
f 249/67/44 246/3/6 247/9/6
f 251/13/3 248/58/44 249/67/44
f 253/76/45 250/1/3 251/13/3
f 255/77/5 252/78/45 253/76/45
f 241/70/42 254/79/5 255/77/5
f 113/63/7 112/66/7 110/24/8
f 115/65/9 114/21/9 112/66/7
f 117/67/10 116/58/10 114/21/9
f 119/68/8 118/25/8 116/58/10
f 121/69/8 120/71/8 118/25/8
f 111/70/8 110/15/8 120/71/8
f 125/72/11 124/74/11 122/24/11
f 127/73/12 126/75/12 124/74/11
f 129/9/12 128/3/12 126/75/12
f 131/67/13 130/58/13 128/3/12
f 133/13/14 132/1/14 130/58/13
f 135/76/15 134/78/15 132/1/14
f 137/77/16 136/79/16 134/78/15
f 123/70/11 122/15/11 136/79/16
f 139/64/17 141/65/18 140/21/18
f 143/68/19 142/25/19 140/21/18
f 139/70/17 138/15/17 142/25/19
f 147/80/20 146/61/20 144/24/21
f 149/81/7 148/16/7 146/61/20
f 151/82/9 150/62/9 148/16/7
f 153/83/10 152/27/10 150/62/9
f 155/67/22 154/58/22 152/27/10
f 157/84/23 156/23/23 154/58/22
f 159/85/10 158/60/10 156/23/23
f 161/86/8 160/26/8 158/60/10
f 163/87/7 162/59/7 160/26/8
f 145/70/21 144/15/21 162/59/7
f 167/73/10 166/75/10 164/24/9
f 169/67/8 168/58/8 166/75/10
f 171/76/7 170/78/7 168/58/8
f 165/70/9 164/15/9 170/78/7
f 175/72/7 174/74/7 172/24/7
f 177/73/9 176/75/9 174/74/7
f 179/9/9 178/3/9 176/75/9
f 181/67/9 180/58/9 178/3/9
f 183/13/10 182/1/10 180/58/9
f 185/76/8 184/78/8 182/1/10
f 187/77/7 186/79/7 184/78/8
f 173/70/7 172/15/7 186/79/7
f 189/64/7 191/90/24 190/88/24
f 193/89/25 192/54/25 190/88/24
f 193/89/25 195/63/26 194/66/26
f 195/63/26 197/92/27 196/57/27
f 199/91/28 198/93/28 196/57/27
f 201/65/29 200/21/29 198/93/28
f 203/94/30 202/96/30 200/21/29
f 205/95/31 204/53/31 202/96/30
f 207/67/32 206/58/32 204/53/31
f 209/97/33 208/52/33 206/58/32
f 211/98/34 210/99/34 208/52/33
f 213/68/35 212/25/35 210/99/34
f 215/100/36 214/102/36 212/25/35
f 217/101/37 216/56/37 214/102/36
f 219/69/10 218/71/10 216/56/37
f 221/103/8 220/55/8 218/71/10
f 223/104/7 222/105/7 220/55/8
f 189/70/7 188/15/7 222/105/7
f 227/72/3 226/74/3 224/24/38
f 229/73/39 228/75/39 226/74/3
f 231/9/6 230/3/6 228/75/39
f 233/67/40 232/58/40 230/3/6
f 235/13/1 234/1/1 232/58/40
f 237/76/41 236/78/41 234/1/1
f 239/77/5 238/79/5 236/78/41
f 225/70/38 224/15/38 238/79/5
f 243/72/1 242/74/1 240/24/42
f 245/73/43 244/75/43 242/74/1
f 247/9/6 246/3/6 244/75/43
f 249/67/44 248/58/44 246/3/6
f 251/13/3 250/1/3 248/58/44
f 253/76/45 252/78/45 250/1/3
f 255/77/5 254/79/5 252/78/45
f 241/70/42 240/15/42 254/79/5
